<svg xmlns="http://www.w3.org/2000/svg" xmlns:xlink="http://www.w3.org/1999/xlink" width="450" zoomAndPan="magnify" viewBox="0 0 337.5 202.499994" height="270" preserveAspectRatio="xMidYMid meet" version="1.0"><defs><filter x="0%" y="0%" width="100%" height="100%" id="33a0c4c2ec"><feColorMatrix values="0 0 0 0 1 0 0 0 0 1 0 0 0 0 1 0 0 0 1 0" color-interpolation-filters="sRGB"/></filter><g/><clipPath id="9f70f9c7b5"><path d="M 0.167969 0 L 336.835938 0 L 336.835938 202 L 0.167969 202 Z M 0.167969 0 " clip-rule="nonzero"/></clipPath><mask id="e57ba59847"><g filter="url(#33a0c4c2ec)"><rect x="-33.75" width="405" fill="#000000" y="-20.249999" height="242.999993" fill-opacity="0.7"/></g></mask><clipPath id="9065b2fcd5"><rect x="0" width="216" y="0" height="191"/></clipPath></defs><g clip-path="url(#9f70f9c7b5)"><path fill="#ffffff" d="M 0.167969 0 L 336.835938 0 L 336.835938 202 L 0.167969 202 Z M 0.167969 0 " fill-opacity="1" fill-rule="nonzero"/><path fill="#f7b4a7" d="M 0.167969 0 L 336.835938 0 L 336.835938 202 L 0.167969 202 Z M 0.167969 0 " fill-opacity="1" fill-rule="nonzero"/></g><g mask="url(#e57ba59847)"><g transform="matrix(1, 0, 0, 1, 60, 5)"><g clip-path="url(#9065b2fcd5)"><path fill="#fdb899" d="M 22.429688 89.125 C 17.648438 77.777344 23.503906 63.203125 34.695312 58.265625 C 40.667969 55.679688 47.398438 55.597656 53.929688 55.480469 C 61.5 55.359375 69.105469 55.082031 76.472656 56.59375 C 83.839844 58.148438 91.128906 61.730469 95.429688 67.941406 C 98.855469 72.917969 100.050781 79.886719 96.863281 84.941406 C 94.632812 88.527344 90.730469 90.597656 87.585938 93.464844 C 84.039062 96.609375 81.453125 100.589844 77.90625 103.734375 C 71.773438 109.230469 63.332031 111.699219 55.125 111.660156 C 46.921875 111.617188 38.835938 109.347656 31.148438 106.363281 C 27.683594 105.007812 23.582031 102.460938 23.941406 98.757812 " fill-opacity="1" fill-rule="nonzero"/><path fill="#d5bec6" d="M 141.351562 120.816406 C 143.421875 128.261719 150.191406 133.675781 157.519531 135.984375 C 164.890625 138.296875 172.773438 137.976562 180.5 137.339844 C 183.410156 137.101562 186.277344 136.820312 189.023438 135.667969 C 195.515625 133 199.457031 125.992188 200.292969 119.023438 C 201.132812 112.058594 199.339844 105.050781 197.386719 98.242188 C 194.917969 89.800781 191.851562 81.28125 186.035156 74.75 C 180.183594 68.179688 170.902344 64 162.460938 66.429688 C 157.164062 67.980469 152.820312 71.84375 149.277344 76.105469 C 139.636719 87.570312 134.140625 102.382812 133.902344 117.3125 " fill-opacity="1" fill-rule="nonzero"/><path fill="#fdddc8" d="M 95.113281 7.023438 C 85.714844 9.132812 51.421875 15.941406 26.25 58.386719 C 1.160156 100.867188 20.4375 143.351562 30.472656 156.929688 C 40.507812 170.507812 59.707031 190.652344 81.171875 188.660156 C 102.640625 186.671875 106.582031 151.515625 124.625 146.578125 C 142.664062 141.640625 157.164062 146.179688 175.042969 153.148438 C 192.925781 160.113281 209.457031 152.628906 212.679688 111.222656 C 215.867188 69.851562 196.074219 36.605469 164.769531 18.929688 C 133.503906 1.371094 106.066406 4.636719 95.113281 7.023438 Z M 88.261719 144.945312 C 86.90625 155.734375 74.800781 162.183594 64.882812 159.398438 C 59.109375 157.726562 54.128906 153.503906 51.183594 148.25 C 50.546875 147.054688 49.949219 145.820312 49.589844 144.546875 C 48.515625 140.484375 49.988281 135.984375 52.617188 132.679688 C 56.441406 127.785156 62.851562 125.078125 69.027344 125.433594 C 77.746094 125.753906 89.496094 135.230469 88.261719 144.945312 Z M 179.945312 97.960938 C 184.125 99.433594 187.75 102.582031 189.699219 106.523438 C 190.296875 107.636719 190.695312 108.871094 191.015625 110.105469 C 192.570312 116.953125 189.261719 124.519531 183.449219 128.539062 C 177.671875 132.5625 169.867188 133.199219 163.257812 130.769531 C 161.144531 130.015625 158.996094 128.898438 157.519531 127.105469 C 150.949219 119.304688 156.324219 104.8125 163.972656 99.832031 C 168.59375 96.847656 174.6875 96.128906 179.945312 97.960938 Z M 84.558594 70.925781 C 86.667969 73.039062 87.226562 76.660156 85.671875 79.210938 C 84.957031 80.445312 83.839844 81.398438 82.605469 82.117188 C 80.375 83.351562 77.628906 83.828125 75.277344 82.871094 C 69.066406 80.402344 71.097656 71.765625 76.273438 69.453125 C 79.023438 68.261719 82.445312 68.777344 84.558594 70.925781 Z M 62.8125 69.335938 C 69.542969 76.898438 65.519531 90.160156 56.679688 95.054688 C 40.867188 103.777344 19.242188 80.003906 42.621094 64.199219 C 48.59375 60.097656 57.992188 63.878906 62.8125 69.335938 Z M 62.8125 69.335938 " fill-opacity="1" fill-rule="nonzero"/><path fill="#f3ab5f" d="M 72.808594 40.589844 C 72.292969 21 90.414062 20.441406 98.457031 28.363281 C 101.007812 30.914062 103.355469 34.335938 103.953125 38.757812 C 104.710938 44.609375 102.003906 50.503906 98.417969 53.328125 C 90.292969 59.699219 73.285156 57.867188 72.808594 40.589844 Z M 72.808594 40.589844 " fill-opacity="1" fill-rule="nonzero"/><path fill="#f19169" d="M 142.664062 77.578125 C 131.554688 76.261719 138.246094 62.289062 135.933594 56.078125 C 134.859375 53.25 132.03125 51.417969 130.636719 48.75 C 129.042969 45.722656 129.5625 41.78125 131.953125 39.355469 C 134.382812 36.765625 138.285156 36.050781 141.828125 36.167969 C 145.375 36.289062 148.917969 37.164062 152.460938 37.042969 C 155.371094 37.003906 158.355469 36.328125 161.144531 37.164062 C 164.210938 38.121094 166.523438 40.988281 167.160156 44.132812 C 167.796875 47.316406 166.878906 50.621094 165.046875 53.289062 C 163.335938 55.757812 160.90625 57.589844 159.195312 60.097656 C 154.890625 66.191406 152.820312 78.769531 142.664062 77.578125 Z M 142.664062 77.578125 " fill-opacity="1" fill-rule="nonzero"/></g></g></g><g fill="#ffffff" fill-opacity="1"><g transform="translate(98.863597, 89.080045)"><g><path d="M 30.96875 -21.34375 C 31.019531 -20.539062 30.976562 -19.472656 30.84375 -18.140625 C 30.707031 -16.816406 30.507812 -15.3125 30.25 -13.625 C 30 -11.945312 29.703125 -10.171875 29.359375 -8.296875 C 29.023438 -6.421875 28.6875 -4.535156 28.34375 -2.640625 C 28.113281 -1.328125 27.875 0.015625 27.625 1.390625 C 27.375 2.773438 27.144531 4.097656 26.9375 5.359375 C 26.738281 6.617188 26.582031 7.726562 26.46875 8.6875 C 26.351562 9.65625 26.300781 10.378906 26.3125 10.859375 C 26.382812 10.742188 26.460938 10.617188 26.546875 10.484375 C 26.609375 10.367188 26.703125 10.296875 26.828125 10.265625 C 26.953125 10.234375 27.070312 10.25 27.1875 10.3125 C 27.300781 10.375 27.375 10.46875 27.40625 10.59375 C 27.4375 10.71875 27.421875 10.835938 27.359375 10.953125 C 27.160156 11.285156 26.941406 11.585938 26.703125 11.859375 C 26.472656 12.128906 26.203125 12.21875 25.890625 12.125 C 25.710938 12.039062 25.578125 11.863281 25.484375 11.59375 C 25.398438 11.320312 25.367188 10.875 25.390625 10.25 C 25.410156 9.632812 25.492188 8.773438 25.640625 7.671875 C 25.796875 6.578125 26.015625 5.171875 26.296875 3.453125 C 26.585938 1.742188 26.96875 -0.335938 27.4375 -2.796875 C 27.75 -4.609375 28.066406 -6.4375 28.390625 -8.28125 C 28.722656 -10.132812 29.019531 -11.898438 29.28125 -13.578125 C 29.550781 -15.265625 29.753906 -16.773438 29.890625 -18.109375 C 30.035156 -19.441406 30.082031 -20.492188 30.03125 -21.265625 C 30 -21.742188 29.929688 -22.09375 29.828125 -22.3125 C 29.734375 -22.539062 29.632812 -22.664062 29.53125 -22.6875 C 29.53125 -22.6875 29.523438 -22.6875 29.515625 -22.6875 C 29.347656 -22.6875 29.054688 -22.507812 28.640625 -22.15625 C 28.234375 -21.800781 27.71875 -21.164062 27.09375 -20.25 C 26.476562 -19.34375 25.75 -18.0625 24.90625 -16.40625 C 24.050781 -14.6875 22.988281 -12.238281 21.71875 -9.0625 C 20.445312 -5.882812 19.09375 -1.804688 17.65625 3.171875 C 17.570312 3.460938 17.382812 3.578125 17.09375 3.515625 C 16.789062 3.441406 16.664062 3.257812 16.71875 2.96875 C 17.875 -3.820312 18.492188 -8.925781 18.578125 -12.34375 C 18.609375 -13.394531 18.585938 -14.222656 18.515625 -14.828125 C 18.453125 -15.429688 18.367188 -15.867188 18.265625 -16.140625 C 18.171875 -16.410156 18.085938 -16.582031 18.015625 -16.65625 C 17.941406 -16.726562 17.898438 -16.773438 17.890625 -16.796875 C 17.867188 -16.796875 17.785156 -16.769531 17.640625 -16.71875 C 17.503906 -16.664062 17.285156 -16.5 16.984375 -16.21875 C 16.691406 -15.945312 16.3125 -15.460938 15.84375 -14.765625 C 15.375 -14.078125 14.804688 -13.097656 14.140625 -11.828125 C 13.484375 -10.554688 12.710938 -8.90625 11.828125 -6.875 C 10.921875 -4.78125 10.007812 -2.515625 9.09375 -0.078125 C 8.175781 2.347656 7.296875 4.835938 6.453125 7.390625 C 5.609375 9.953125 4.84375 12.460938 4.15625 14.921875 C 4.15625 14.921875 4.15625 14.925781 4.15625 14.9375 C 4.039062 15.238281 3.921875 15.503906 3.796875 15.734375 C 3.671875 15.960938 3.507812 16.078125 3.3125 16.078125 C 3.257812 16.078125 3.203125 16.066406 3.140625 16.046875 C 2.910156 15.960938 2.789062 15.785156 2.78125 15.515625 C 2.769531 15.242188 2.804688 14.820312 2.890625 14.25 C 3.003906 13.46875 3.203125 12.351562 3.484375 10.90625 C 3.984375 8.414062 4.710938 5.003906 5.671875 0.671875 C 6.097656 -1.328125 6.53125 -3.296875 6.96875 -5.234375 C 7.40625 -7.171875 7.8125 -8.96875 8.1875 -10.625 C 8.5625 -12.28125 8.890625 -13.703125 9.171875 -14.890625 C 9.453125 -16.078125 9.648438 -16.910156 9.765625 -17.390625 C 10.035156 -18.523438 10.171875 -19.382812 10.171875 -19.96875 C 10.179688 -20.550781 10.132812 -20.957031 10.03125 -21.1875 C 9.925781 -21.425781 9.835938 -21.570312 9.765625 -21.625 C 9.585938 -21.738281 9.3125 -21.71875 8.9375 -21.5625 C 8.570312 -21.414062 8.148438 -21.160156 7.671875 -20.796875 C 7.023438 -20.304688 6.363281 -19.664062 5.6875 -18.875 C 5.007812 -18.082031 4.367188 -17.210938 3.765625 -16.265625 C 3.171875 -15.328125 2.660156 -14.375 2.234375 -13.40625 C 1.816406 -12.445312 1.53125 -11.519531 1.375 -10.625 C 1.21875 -9.738281 1.253906 -8.957031 1.484375 -8.28125 C 1.960938 -6.863281 3.332031 -6.140625 5.59375 -6.109375 C 5.71875 -6.109375 5.828125 -6.054688 5.921875 -5.953125 C 6.015625 -5.859375 6.0625 -5.742188 6.0625 -5.609375 C 6.0625 -5.484375 6.007812 -5.375 5.90625 -5.28125 C 5.8125 -5.1875 5.707031 -5.140625 5.59375 -5.140625 C 5.59375 -5.140625 5.585938 -5.140625 5.578125 -5.140625 C 5.566406 -5.140625 5.5625 -5.140625 5.5625 -5.140625 C 4.957031 -5.160156 4.316406 -5.25 3.640625 -5.40625 C 2.960938 -5.5625 2.347656 -5.835938 1.796875 -6.234375 C 1.242188 -6.640625 0.832031 -7.222656 0.5625 -7.984375 C 0.363281 -8.597656 0.285156 -9.242188 0.328125 -9.921875 C 0.367188 -10.597656 0.488281 -11.269531 0.6875 -11.9375 C 0.882812 -12.601562 1.109375 -13.226562 1.359375 -13.8125 C 1.617188 -14.394531 1.867188 -14.898438 2.109375 -15.328125 C 2.773438 -16.566406 3.550781 -17.742188 4.4375 -18.859375 C 5.332031 -19.984375 6.21875 -20.882812 7.09375 -21.5625 C 7.9375 -22.207031 8.613281 -22.550781 9.125 -22.59375 C 9.632812 -22.632812 10.023438 -22.570312 10.296875 -22.40625 C 11.242188 -21.800781 11.375 -20.054688 10.6875 -17.171875 C 10.5 -16.410156 10.257812 -15.40625 9.96875 -14.15625 C 9.6875 -12.914062 9.367188 -11.507812 9.015625 -9.9375 C 8.660156 -8.375 8.285156 -6.722656 7.890625 -4.984375 C 7.492188 -3.242188 7.101562 -1.5 6.71875 0.25 C 6.332031 2.007812 5.960938 3.707031 5.609375 5.34375 C 5.253906 6.988281 4.941406 8.488281 4.671875 9.84375 C 5.296875 7.84375 5.953125 5.84375 6.640625 3.84375 C 7.335938 1.851562 8.050781 -0.078125 8.78125 -1.953125 C 9.507812 -3.835938 10.234375 -5.609375 10.953125 -7.265625 C 11.910156 -9.460938 12.75 -11.238281 13.46875 -12.59375 C 14.195312 -13.957031 14.828125 -15 15.359375 -15.71875 C 15.890625 -16.445312 16.332031 -16.953125 16.6875 -17.234375 C 17.050781 -17.515625 17.34375 -17.671875 17.5625 -17.703125 C 17.789062 -17.742188 17.972656 -17.742188 18.109375 -17.703125 C 18.335938 -17.660156 18.554688 -17.515625 18.765625 -17.265625 C 18.984375 -17.015625 19.160156 -16.597656 19.296875 -16.015625 C 19.441406 -15.429688 19.523438 -14.609375 19.546875 -13.546875 C 19.578125 -12.484375 19.519531 -11.117188 19.375 -9.453125 C 19.238281 -7.785156 19.003906 -5.738281 18.671875 -3.3125 C 19.679688 -6.363281 20.703125 -9.144531 21.734375 -11.65625 C 22.765625 -14.175781 23.765625 -16.335938 24.734375 -18.140625 C 25.703125 -19.941406 26.609375 -21.320312 27.453125 -22.28125 C 28.296875 -23.238281 29.03125 -23.6875 29.65625 -23.625 C 30.425781 -23.539062 30.863281 -22.78125 30.96875 -21.34375 Z M 30.96875 -21.34375 "/></g></g></g><g fill="#ffffff" fill-opacity="1"><g transform="translate(130.189122, 89.080045)"><g><path d="M 12.09375 -5.4375 C 12.175781 -5.34375 12.203125 -5.226562 12.171875 -5.09375 C 12.140625 -4.957031 12.070312 -4.859375 11.96875 -4.796875 C 10.769531 -4.003906 9.5625 -3.148438 8.34375 -2.234375 C 7.132812 -1.316406 5.953125 -0.285156 4.796875 0.859375 C 3.828125 6.679688 2.765625 11.40625 1.609375 15.03125 C 1.359375 15.78125 1.085938 16.535156 0.796875 17.296875 C 0.515625 18.066406 0.207031 18.785156 -0.125 19.453125 C -0.46875 20.117188 -0.828125 20.675781 -1.203125 21.125 C -1.585938 21.582031 -1.976562 21.867188 -2.375 21.984375 C -2.488281 22.015625 -2.613281 22.03125 -2.75 22.03125 C -3.125 22.03125 -3.453125 21.867188 -3.734375 21.546875 C -4.078125 21.097656 -4.300781 20.421875 -4.40625 19.515625 C -4.519531 18.609375 -4.5 17.546875 -4.34375 16.328125 C -4.195312 15.109375 -3.914062 13.8125 -3.5 12.4375 C -3.082031 11.070312 -2.519531 9.710938 -1.8125 8.359375 C -0.945312 6.722656 -0.0351562 5.253906 0.921875 3.953125 C 1.890625 2.648438 2.894531 1.460938 3.9375 0.390625 C 4.175781 -1.148438 4.421875 -2.773438 4.671875 -4.484375 C 4.460938 -4.148438 4.234375 -3.8125 3.984375 -3.46875 C 3.734375 -3.132812 3.484375 -2.816406 3.234375 -2.515625 C 2.910156 -2.117188 2.609375 -1.863281 2.328125 -1.75 C 2.046875 -1.632812 1.804688 -1.59375 1.609375 -1.625 C 1.410156 -1.664062 1.257812 -1.71875 1.15625 -1.78125 C 0.800781 -2 0.554688 -2.382812 0.421875 -2.9375 C 0.285156 -3.488281 0.265625 -4.140625 0.359375 -4.890625 C 0.460938 -5.648438 0.679688 -6.441406 1.015625 -7.265625 C 1.066406 -7.378906 1.148438 -7.460938 1.265625 -7.515625 C 1.390625 -7.566406 1.507812 -7.566406 1.625 -7.515625 C 1.75 -7.460938 1.835938 -7.378906 1.890625 -7.265625 C 1.953125 -7.148438 1.957031 -7.03125 1.90625 -6.90625 C 1.570312 -6.125 1.367188 -5.425781 1.296875 -4.8125 C 1.222656 -4.195312 1.226562 -3.691406 1.3125 -3.296875 C 1.394531 -2.910156 1.507812 -2.675781 1.65625 -2.59375 C 1.832031 -2.476562 2.113281 -2.648438 2.5 -3.109375 C 2.832031 -3.503906 3.160156 -3.941406 3.484375 -4.421875 C 3.816406 -4.898438 4.117188 -5.359375 4.390625 -5.796875 C 4.660156 -6.234375 4.878906 -6.59375 5.046875 -6.875 C 5.179688 -7.101562 5.367188 -7.175781 5.609375 -7.09375 C 5.859375 -7 5.96875 -6.828125 5.9375 -6.578125 C 5.65625 -4.515625 5.367188 -2.5625 5.078125 -0.71875 C 6.109375 -1.6875 7.160156 -2.566406 8.234375 -3.359375 C 9.304688 -4.148438 10.378906 -4.894531 11.453125 -5.59375 C 11.546875 -5.65625 11.660156 -5.671875 11.796875 -5.640625 C 11.929688 -5.617188 12.03125 -5.550781 12.09375 -5.4375 Z M 0.6875 14.765625 C 1.75 11.460938 2.734375 7.25 3.640625 2.125 C 2.816406 3.050781 2.015625 4.0625 1.234375 5.15625 C 0.460938 6.25 -0.269531 7.46875 -0.96875 8.8125 C -1.707031 10.238281 -2.273438 11.617188 -2.671875 12.953125 C -3.066406 14.296875 -3.316406 15.519531 -3.421875 16.625 C -3.535156 17.726562 -3.546875 18.65625 -3.453125 19.40625 C -3.359375 20.15625 -3.207031 20.660156 -3 20.921875 C -2.914062 21.023438 -2.84375 21.078125 -2.78125 21.078125 C -2.726562 21.085938 -2.679688 21.085938 -2.640625 21.078125 C -2.578125 21.054688 -2.453125 20.972656 -2.265625 20.828125 C -2.085938 20.691406 -1.847656 20.410156 -1.546875 19.984375 C -1.253906 19.566406 -0.914062 18.941406 -0.53125 18.109375 C -0.15625 17.285156 0.25 16.171875 0.6875 14.765625 Z M 0.6875 14.765625 "/></g></g></g><g fill="#ffffff" fill-opacity="1"><g transform="translate(141.141928, 89.080045)"><g/></g></g><g fill="#ffffff" fill-opacity="1"><g transform="translate(148.732248, 89.080045)"><g><path d="M 25.71875 -5.078125 C 25.832031 -4.992188 25.898438 -4.882812 25.921875 -4.75 C 25.941406 -4.613281 25.914062 -4.5 25.84375 -4.40625 C 25.75 -4.269531 25.617188 -4.203125 25.453125 -4.203125 C 25.390625 -4.203125 25.320312 -4.21875 25.25 -4.25 C 25.070312 -4.28125 24.523438 -4.316406 23.609375 -4.359375 C 22.691406 -4.398438 21.609375 -4.445312 20.359375 -4.5 C 20.015625 -3.050781 19.671875 -1.597656 19.328125 -0.140625 C 18.992188 1.316406 18.6875 2.722656 18.40625 4.078125 C 17.988281 6.003906 17.664062 7.570312 17.4375 8.78125 C 17.21875 10 17.070312 10.941406 17 11.609375 C 16.925781 12.273438 16.890625 12.757812 16.890625 13.0625 C 16.960938 12.945312 17.035156 12.820312 17.109375 12.6875 C 17.179688 12.570312 17.28125 12.5 17.40625 12.46875 C 17.539062 12.4375 17.660156 12.453125 17.765625 12.515625 C 17.878906 12.578125 17.953125 12.671875 17.984375 12.796875 C 18.015625 12.921875 18 13.039062 17.9375 13.15625 C 17.769531 13.457031 17.582031 13.734375 17.375 13.984375 C 17.164062 14.242188 16.941406 14.375 16.703125 14.375 C 16.617188 14.375 16.535156 14.359375 16.453125 14.328125 C 16.296875 14.253906 16.171875 14.113281 16.078125 13.90625 C 15.992188 13.707031 15.953125 13.367188 15.953125 12.890625 C 15.953125 12.410156 16.015625 11.738281 16.140625 10.875 C 16.265625 10.019531 16.457031 8.90625 16.71875 7.53125 C 16.976562 6.164062 17.328125 4.492188 17.765625 2.515625 C 18.203125 0.546875 18.742188 -1.800781 19.390625 -4.53125 C 18.566406 -4.539062 17.722656 -4.554688 16.859375 -4.578125 C 16.003906 -4.609375 15.175781 -4.632812 14.375 -4.65625 C 14.175781 -4.664062 13.984375 -4.671875 13.796875 -4.671875 C 13.617188 -4.671875 13.4375 -4.671875 13.25 -4.671875 C 12.195312 -2.679688 11.175781 -0.8125 10.1875 0.9375 C 9.195312 2.6875 8.289062 4.125 7.46875 5.25 C 6.957031 5.914062 6.472656 6.359375 6.015625 6.578125 C 5.566406 6.796875 5.164062 6.878906 4.8125 6.828125 C 4.457031 6.773438 4.171875 6.679688 3.953125 6.546875 C 3.410156 6.234375 2.945312 5.726562 2.5625 5.03125 C 2.1875 4.34375 1.882812 3.53125 1.65625 2.59375 C 1.425781 1.65625 1.289062 0.664062 1.25 -0.375 C 1.207031 -1.425781 1.265625 -2.460938 1.421875 -3.484375 C 1.578125 -4.503906 1.835938 -5.4375 2.203125 -6.28125 C 2.941406 -7.96875 4.023438 -9.097656 5.453125 -9.671875 C 6.878906 -10.242188 8.554688 -10.226562 10.484375 -9.625 C 10.617188 -9.59375 10.710938 -9.515625 10.765625 -9.390625 C 10.828125 -9.273438 10.832031 -9.15625 10.78125 -9.03125 C 10.75 -8.914062 10.675781 -8.820312 10.5625 -8.75 C 10.445312 -8.6875 10.320312 -8.679688 10.1875 -8.734375 C 9.613281 -8.910156 8.992188 -9.03125 8.328125 -9.09375 C 7.671875 -9.164062 7.015625 -9.125 6.359375 -8.96875 C 5.710938 -8.8125 5.101562 -8.488281 4.53125 -8 C 3.96875 -7.507812 3.476562 -6.804688 3.0625 -5.890625 C 2.6875 -5.023438 2.429688 -4.109375 2.296875 -3.140625 C 2.171875 -2.179688 2.140625 -1.222656 2.203125 -0.265625 C 2.265625 0.679688 2.398438 1.570312 2.609375 2.40625 C 2.816406 3.238281 3.078125 3.945312 3.390625 4.53125 C 3.703125 5.125 4.046875 5.523438 4.421875 5.734375 C 5.117188 6.128906 5.878906 5.773438 6.703125 4.671875 C 7.472656 3.617188 8.328125 2.265625 9.265625 0.609375 C 10.210938 -1.035156 11.1875 -2.804688 12.1875 -4.703125 C 10.175781 -4.765625 8.566406 -4.816406 7.359375 -4.859375 C 6.148438 -4.898438 5.421875 -4.945312 5.171875 -5 C 5.035156 -5.03125 4.929688 -5.097656 4.859375 -5.203125 C 4.785156 -5.316406 4.765625 -5.4375 4.796875 -5.5625 C 4.816406 -5.695312 4.882812 -5.796875 5 -5.859375 C 5.113281 -5.929688 5.226562 -5.957031 5.34375 -5.9375 C 5.507812 -5.90625 5.945312 -5.867188 6.65625 -5.828125 C 7.375 -5.796875 8.257812 -5.765625 9.3125 -5.734375 C 10.375 -5.703125 11.5 -5.671875 12.6875 -5.640625 C 13.226562 -6.710938 13.773438 -7.785156 14.328125 -8.859375 C 14.878906 -9.941406 15.429688 -11.015625 15.984375 -12.078125 C 17.296875 -14.691406 18.394531 -16.851562 19.28125 -18.5625 C 20.175781 -20.269531 20.910156 -21.59375 21.484375 -22.53125 C 22.066406 -23.46875 22.539062 -24.101562 22.90625 -24.4375 C 23.28125 -24.78125 23.609375 -24.90625 23.890625 -24.8125 C 24.191406 -24.695312 24.363281 -24.453125 24.40625 -24.078125 C 24.457031 -23.703125 24.457031 -23.242188 24.40625 -22.703125 C 24.3125 -21.628906 24.023438 -20.03125 23.546875 -17.90625 C 23.398438 -17.195312 23.191406 -16.289062 22.921875 -15.1875 C 22.648438 -14.082031 22.351562 -12.863281 22.03125 -11.53125 C 21.800781 -10.582031 21.5625 -9.59375 21.3125 -8.5625 C 21.070312 -7.539062 20.828125 -6.5 20.578125 -5.4375 C 21.960938 -5.394531 23.007812 -5.351562 23.71875 -5.3125 C 24.425781 -5.28125 24.921875 -5.242188 25.203125 -5.203125 C 25.484375 -5.160156 25.65625 -5.117188 25.71875 -5.078125 Z M 14.390625 -5.609375 C 15.453125 -5.578125 16.410156 -5.546875 17.265625 -5.515625 C 18.117188 -5.492188 18.898438 -5.476562 19.609375 -5.46875 C 20.054688 -7.375 20.550781 -9.46875 21.09375 -11.75 C 21.425781 -13.082031 21.722656 -14.300781 21.984375 -15.40625 C 22.253906 -16.507812 22.46875 -17.410156 22.625 -18.109375 C 22.894531 -19.359375 23.09375 -20.363281 23.21875 -21.125 C 23.351562 -21.882812 23.4375 -22.460938 23.46875 -22.859375 C 23.5 -23.265625 23.507812 -23.550781 23.5 -23.71875 C 23.21875 -23.4375 22.828125 -22.882812 22.328125 -22.0625 C 21.835938 -21.25 21.28125 -20.265625 20.65625 -19.109375 C 20.039062 -17.960938 19.40625 -16.738281 18.75 -15.4375 C 18.09375 -14.132812 17.445312 -12.875 16.8125 -11.65625 C 16.320312 -10.664062 15.816406 -9.660156 15.296875 -8.640625 C 14.773438 -7.628906 14.257812 -6.617188 13.75 -5.609375 C 13.851562 -5.609375 13.957031 -5.609375 14.0625 -5.609375 C 14.164062 -5.609375 14.273438 -5.609375 14.390625 -5.609375 Z M 14.390625 -5.609375 "/></g></g></g><g fill="#ffffff" fill-opacity="1"><g transform="translate(175.879392, 89.080045)"><g><path d="M 10.859375 -5.609375 C 10.972656 -5.546875 11.054688 -5.453125 11.109375 -5.328125 C 11.160156 -5.203125 11.148438 -5.082031 11.078125 -4.96875 C 10.765625 -4.289062 10.378906 -3.53125 9.921875 -2.6875 C 9.472656 -1.851562 8.992188 -1.007812 8.484375 -0.15625 C 7.972656 0.6875 7.453125 1.457031 6.921875 2.15625 C 6.398438 2.863281 5.890625 3.4375 5.390625 3.875 C 4.898438 4.3125 4.457031 4.53125 4.0625 4.53125 C 3.945312 4.53125 3.835938 4.503906 3.734375 4.453125 C 3.390625 4.316406 3.160156 4 3.046875 3.5 C 2.941406 3.007812 2.957031 2.304688 3.09375 1.390625 C 3.320312 -0.273438 3.929688 -2.632812 4.921875 -5.6875 C 4.898438 -5.6875 4.882812 -5.679688 4.875 -5.671875 C 4.875 -5.671875 4.863281 -5.671875 4.84375 -5.671875 C 4.519531 -5.429688 4.125 -5.1875 3.65625 -4.9375 C 3.195312 -4.695312 2.71875 -4.535156 2.21875 -4.453125 C 1.726562 -4.367188 1.257812 -4.476562 0.8125 -4.78125 C 0.1875 -5.21875 -0.128906 -5.832031 -0.140625 -6.625 C -0.160156 -7.414062 0.128906 -8.28125 0.734375 -9.21875 C 0.929688 -9.519531 1.191406 -9.851562 1.515625 -10.21875 C 1.835938 -10.582031 2.175781 -10.863281 2.53125 -11.0625 C 2.882812 -11.257812 3.203125 -11.265625 3.484375 -11.078125 C 3.628906 -10.992188 3.738281 -10.851562 3.8125 -10.65625 C 3.894531 -10.457031 3.894531 -10.148438 3.8125 -9.734375 C 3.726562 -9.328125 3.53125 -8.773438 3.21875 -8.078125 C 2.90625 -7.390625 2.4375 -6.492188 1.8125 -5.390625 C 2.1875 -5.335938 2.609375 -5.441406 3.078125 -5.703125 C 3.546875 -5.972656 3.960938 -6.222656 4.328125 -6.453125 C 4.671875 -6.679688 4.957031 -6.847656 5.1875 -6.953125 C 5.425781 -7.066406 5.644531 -7.050781 5.84375 -6.90625 C 6.019531 -6.75 6.09375 -6.5625 6.0625 -6.34375 C 6.03125 -6.132812 6 -5.972656 5.96875 -5.859375 C 5.414062 -4.148438 4.988281 -2.722656 4.6875 -1.578125 C 4.394531 -0.441406 4.195312 0.46875 4.09375 1.15625 C 3.988281 1.851562 3.9375 2.375 3.9375 2.71875 C 3.9375 3.0625 3.957031 3.285156 4 3.390625 C 4.050781 3.503906 4.078125 3.570312 4.078125 3.59375 C 4.273438 3.625 4.679688 3.300781 5.296875 2.625 C 5.921875 1.957031 6.660156 0.953125 7.515625 -0.390625 C 8.378906 -1.734375 9.28125 -3.394531 10.21875 -5.375 C 10.28125 -5.5 10.375 -5.582031 10.5 -5.625 C 10.625 -5.664062 10.742188 -5.660156 10.859375 -5.609375 Z M 0.890625 -7.296875 C 0.785156 -6.953125 0.753906 -6.664062 0.796875 -6.4375 C 0.835938 -6.21875 0.898438 -6.039062 0.984375 -5.90625 C 1.515625 -6.832031 1.914062 -7.582031 2.1875 -8.15625 C 2.457031 -8.738281 2.640625 -9.1875 2.734375 -9.5 C 2.835938 -9.8125 2.898438 -10.035156 2.921875 -10.171875 C 2.734375 -10.066406 2.503906 -9.875 2.234375 -9.59375 C 1.960938 -9.3125 1.695312 -8.972656 1.4375 -8.578125 C 1.1875 -8.179688 1.003906 -7.753906 0.890625 -7.296875 Z M 0.890625 -7.296875 "/></g></g></g><g fill="#ffffff" fill-opacity="1"><g transform="translate(185.744331, 89.080045)"><g><path d="M 20.875 -14.59375 C 20.957031 -14.488281 20.988281 -14.367188 20.96875 -14.234375 C 20.957031 -14.109375 20.894531 -14.003906 20.78125 -13.921875 C 20.582031 -13.796875 20.390625 -13.804688 20.203125 -13.953125 C 19.992188 -14.035156 19.503906 -14.09375 18.734375 -14.125 C 17.972656 -14.15625 17.015625 -14.175781 15.859375 -14.1875 C 14.703125 -14.195312 13.429688 -14.191406 12.046875 -14.171875 C 10.660156 -14.148438 9.238281 -14.128906 7.78125 -14.109375 C 6.320312 -14.085938 4.90625 -14.0625 3.53125 -14.03125 C 3.019531 -11.882812 2.484375 -9.550781 1.921875 -7.03125 C 1.367188 -4.519531 0.816406 -1.96875 0.265625 0.625 C -0.441406 4.019531 -0.988281 6.804688 -1.375 8.984375 C -1.757812 11.160156 -2.007812 12.734375 -2.125 13.703125 C -2.09375 13.703125 -2.0625 13.710938 -2.03125 13.734375 C -1.894531 13.765625 -1.800781 13.835938 -1.75 13.953125 C -1.707031 14.078125 -1.707031 14.203125 -1.75 14.328125 C -1.851562 14.597656 -1.96875 14.851562 -2.09375 15.09375 C -2.21875 15.332031 -2.382812 15.453125 -2.59375 15.453125 C -2.644531 15.453125 -2.703125 15.445312 -2.765625 15.4375 C -2.992188 15.351562 -3.117188 15.175781 -3.140625 14.90625 C -3.171875 14.632812 -3.15625 14.257812 -3.09375 13.78125 C -3.03125 13.082031 -2.878906 12.082031 -2.640625 10.78125 C -2.441406 9.5625 -2.1875 8.132812 -1.875 6.5 C -1.5625 4.875 -1.203125 3.085938 -0.796875 1.140625 C -0.242188 -1.492188 0.316406 -4.113281 0.890625 -6.71875 C 1.460938 -9.332031 2.015625 -11.757812 2.546875 -14 C 1.753906 -13.976562 1.003906 -13.957031 0.296875 -13.9375 C -0.410156 -13.925781 -1.050781 -13.914062 -1.625 -13.90625 C -2.738281 -13.863281 -3.707031 -13.832031 -4.53125 -13.8125 C -5.351562 -13.800781 -5.9375 -13.796875 -6.28125 -13.796875 C -6.414062 -13.796875 -6.523438 -13.84375 -6.609375 -13.9375 C -6.703125 -14.03125 -6.75 -14.140625 -6.75 -14.265625 C -6.75 -14.398438 -6.703125 -14.507812 -6.609375 -14.59375 C -6.523438 -14.6875 -6.414062 -14.734375 -6.28125 -14.734375 C -5.9375 -14.734375 -5.351562 -14.742188 -4.53125 -14.765625 C -3.71875 -14.796875 -2.757812 -14.828125 -1.65625 -14.859375 C -0.863281 -14.878906 -0.0976562 -14.894531 0.640625 -14.90625 C 1.378906 -14.925781 2.097656 -14.945312 2.796875 -14.96875 C 3.046875 -16.019531 3.289062 -17.007812 3.53125 -17.9375 C 3.769531 -18.875 3.992188 -19.726562 4.203125 -20.5 C 4.234375 -20.632812 4.304688 -20.734375 4.421875 -20.796875 C 4.535156 -20.867188 4.65625 -20.882812 4.78125 -20.84375 C 4.90625 -20.8125 5 -20.738281 5.0625 -20.625 C 5.132812 -20.507812 5.15625 -20.382812 5.125 -20.25 C 4.726562 -18.789062 4.273438 -17.035156 3.765625 -14.984375 C 6.335938 -15.035156 8.535156 -15.070312 10.359375 -15.09375 C 12.191406 -15.125 13.722656 -15.140625 14.953125 -15.140625 C 16.191406 -15.140625 17.195312 -15.117188 17.96875 -15.078125 C 18.738281 -15.046875 19.320312 -15.007812 19.71875 -14.96875 C 20.113281 -14.9375 20.390625 -14.882812 20.546875 -14.8125 C 20.710938 -14.75 20.820312 -14.675781 20.875 -14.59375 Z M 20.875 -14.59375 "/></g></g></g><g fill="#ffffff" fill-opacity="1"><g transform="translate(189.032648, 89.080045)"><g><path d="M 15.15625 -5.5625 C 15.238281 -5.476562 15.285156 -5.367188 15.296875 -5.234375 C 15.304688 -5.109375 15.257812 -4.992188 15.15625 -4.890625 C 14.382812 -4.097656 13.597656 -3.546875 12.796875 -3.234375 C 11.992188 -2.921875 11.257812 -2.863281 10.59375 -3.0625 C 10.289062 -3.164062 9.972656 -3.332031 9.640625 -3.5625 C 9.316406 -3.789062 9.03125 -4.15625 8.78125 -4.65625 C 8.53125 -3.726562 8.25 -2.84375 7.9375 -2 C 7.59375 -1.09375 7.285156 -0.421875 7.015625 0.015625 C 6.742188 0.453125 6.5 0.738281 6.28125 0.875 C 6.070312 1.019531 5.882812 1.09375 5.71875 1.09375 C 5.414062 1.09375 5.179688 0.976562 5.015625 0.75 C 4.859375 0.53125 4.738281 0.285156 4.65625 0.015625 C 4.570312 -0.242188 4.515625 -0.445312 4.484375 -0.59375 C 4.429688 -0.875 4.390625 -1.203125 4.359375 -1.578125 C 3.796875 -0.703125 3.34375 -0.0507812 3 0.375 C 2.664062 0.8125 2.367188 1.15625 2.109375 1.40625 C 1.890625 1.625 1.6875 1.769531 1.5 1.84375 C 1.320312 1.914062 1.160156 1.953125 1.015625 1.953125 C 0.898438 1.953125 0.789062 1.9375 0.6875 1.90625 C 0.59375 1.875 0.519531 1.832031 0.46875 1.78125 C 0.0625 1.519531 -0.179688 0.953125 -0.265625 0.078125 C -0.347656 -0.796875 -0.273438 -1.867188 -0.046875 -3.140625 C 0.179688 -4.410156 0.5625 -5.785156 1.09375 -7.265625 C 1.132812 -7.378906 1.210938 -7.46875 1.328125 -7.53125 C 1.453125 -7.59375 1.578125 -7.597656 1.703125 -7.546875 C 1.816406 -7.515625 1.898438 -7.4375 1.953125 -7.3125 C 2.015625 -7.1875 2.023438 -7.066406 1.984375 -6.953125 C 1.390625 -5.304688 1.003906 -3.90625 0.828125 -2.75 C 0.648438 -1.601562 0.59375 -0.71875 0.65625 -0.09375 C 0.726562 0.53125 0.835938 0.890625 0.984375 0.984375 C 1.054688 1.035156 1.210938 0.945312 1.453125 0.71875 C 1.648438 0.53125 1.867188 0.285156 2.109375 -0.015625 C 2.347656 -0.316406 2.644531 -0.726562 3 -1.25 C 3.351562 -1.78125 3.804688 -2.476562 4.359375 -3.34375 C 4.472656 -3.539062 4.644531 -3.601562 4.875 -3.53125 C 5.101562 -3.46875 5.21875 -3.3125 5.21875 -3.0625 C 5.21875 -2.769531 5.234375 -2.40625 5.265625 -1.96875 C 5.296875 -1.539062 5.347656 -1.140625 5.421875 -0.765625 C 5.484375 -0.484375 5.539062 -0.273438 5.59375 -0.140625 C 5.644531 -0.015625 5.6875 0.0703125 5.71875 0.125 C 5.882812 0.0195312 6.082031 -0.257812 6.3125 -0.71875 C 6.550781 -1.175781 6.796875 -1.734375 7.046875 -2.390625 C 7.304688 -3.054688 7.539062 -3.75 7.75 -4.46875 C 7.957031 -5.195312 8.101562 -5.875 8.1875 -6.5 C 8.238281 -6.769531 8.394531 -6.90625 8.65625 -6.90625 C 8.914062 -6.914062 9.070312 -6.789062 9.125 -6.53125 C 9.40625 -5.09375 9.984375 -4.242188 10.859375 -3.984375 C 11.347656 -3.835938 11.914062 -3.898438 12.5625 -4.171875 C 13.207031 -4.453125 13.851562 -4.914062 14.5 -5.5625 C 14.582031 -5.664062 14.6875 -5.71875 14.8125 -5.71875 C 14.945312 -5.71875 15.0625 -5.664062 15.15625 -5.5625 Z M 15.15625 -5.5625 "/></g></g></g><g fill="#ffffff" fill-opacity="1"><g transform="translate(203.100706, 89.080045)"><g><path d="M 8.953125 -5.390625 C 9.066406 -5.304688 9.128906 -5.195312 9.140625 -5.0625 C 9.160156 -4.9375 9.128906 -4.820312 9.046875 -4.71875 C 8.617188 -4.175781 8.117188 -3.691406 7.546875 -3.265625 C 6.984375 -2.835938 6.390625 -2.519531 5.765625 -2.3125 C 5.148438 -2.101562 4.554688 -2.066406 3.984375 -2.203125 C 3.753906 -1.617188 3.425781 -1.171875 3 -0.859375 C 2.582031 -0.546875 2.160156 -0.390625 1.734375 -0.390625 C 1.734375 -0.390625 1.726562 -0.390625 1.71875 -0.390625 C 1.707031 -0.390625 1.703125 -0.390625 1.703125 -0.390625 C 1.253906 -0.410156 0.863281 -0.5625 0.53125 -0.84375 C 0.195312 -1.132812 -0.0351562 -1.535156 -0.171875 -2.046875 C -0.316406 -2.628906 -0.335938 -3.179688 -0.234375 -3.703125 C -0.140625 -4.222656 0.0351562 -4.679688 0.296875 -5.078125 C 0.554688 -5.472656 0.851562 -5.773438 1.1875 -5.984375 C 1.300781 -6.066406 1.429688 -6.082031 1.578125 -6.03125 C 1.734375 -6.394531 1.945312 -6.675781 2.21875 -6.875 C 2.488281 -7.070312 2.769531 -7.144531 3.0625 -7.09375 C 3.25 -7.0625 3.445312 -6.953125 3.65625 -6.765625 C 3.875 -6.578125 4.046875 -6.238281 4.171875 -5.75 C 4.304688 -5.257812 4.347656 -4.546875 4.296875 -3.609375 C 4.285156 -3.441406 4.265625 -3.273438 4.234375 -3.109375 C 4.671875 -3.035156 5.132812 -3.085938 5.625 -3.265625 C 6.125 -3.441406 6.601562 -3.71875 7.0625 -4.09375 C 7.53125 -4.46875 7.9375 -4.875 8.28125 -5.3125 C 8.363281 -5.414062 8.472656 -5.472656 8.609375 -5.484375 C 8.742188 -5.503906 8.859375 -5.472656 8.953125 -5.390625 Z M 1.734375 -1.359375 C 1.941406 -1.359375 2.175781 -1.457031 2.4375 -1.65625 C 2.707031 -1.851562 2.925781 -2.148438 3.09375 -2.546875 C 2.5 -2.878906 2.070312 -3.257812 1.8125 -3.6875 C 1.5625 -4.113281 1.425781 -4.539062 1.40625 -4.96875 C 1.0625 -4.644531 0.832031 -4.222656 0.71875 -3.703125 C 0.613281 -3.191406 0.617188 -2.734375 0.734375 -2.328125 C 0.785156 -2.140625 0.882812 -1.929688 1.03125 -1.703125 C 1.1875 -1.472656 1.421875 -1.359375 1.734375 -1.359375 Z M 3.34375 -3.65625 C 3.375 -4.320312 3.359375 -4.832031 3.296875 -5.1875 C 3.242188 -5.550781 3.175781 -5.800781 3.09375 -5.9375 C 3.007812 -6.070312 2.953125 -6.144531 2.921875 -6.15625 C 2.898438 -6.15625 2.890625 -6.15625 2.890625 -6.15625 C 2.835938 -6.15625 2.757812 -6.101562 2.65625 -6 C 2.5625 -5.90625 2.484375 -5.757812 2.421875 -5.5625 C 2.328125 -5.25 2.335938 -4.90625 2.453125 -4.53125 C 2.566406 -4.164062 2.863281 -3.828125 3.34375 -3.515625 C 3.34375 -3.566406 3.34375 -3.613281 3.34375 -3.65625 Z M 3.34375 -3.65625 "/></g></g></g><g fill="#ffffff" fill-opacity="1"><g transform="translate(211.01244, 89.080045)"><g><path d="M 10.859375 -5.609375 C 10.972656 -5.546875 11.054688 -5.453125 11.109375 -5.328125 C 11.160156 -5.203125 11.148438 -5.082031 11.078125 -4.96875 C 10.765625 -4.289062 10.378906 -3.53125 9.921875 -2.6875 C 9.472656 -1.851562 8.992188 -1.007812 8.484375 -0.15625 C 7.972656 0.6875 7.453125 1.457031 6.921875 2.15625 C 6.398438 2.863281 5.890625 3.4375 5.390625 3.875 C 4.898438 4.3125 4.457031 4.53125 4.0625 4.53125 C 3.945312 4.53125 3.835938 4.503906 3.734375 4.453125 C 3.390625 4.316406 3.160156 4 3.046875 3.5 C 2.941406 3.007812 2.957031 2.304688 3.09375 1.390625 C 3.320312 -0.273438 3.929688 -2.632812 4.921875 -5.6875 C 4.898438 -5.6875 4.882812 -5.679688 4.875 -5.671875 C 4.875 -5.671875 4.863281 -5.671875 4.84375 -5.671875 C 4.519531 -5.429688 4.125 -5.1875 3.65625 -4.9375 C 3.195312 -4.695312 2.71875 -4.535156 2.21875 -4.453125 C 1.726562 -4.367188 1.257812 -4.476562 0.8125 -4.78125 C 0.1875 -5.21875 -0.128906 -5.832031 -0.140625 -6.625 C -0.160156 -7.414062 0.128906 -8.28125 0.734375 -9.21875 C 0.929688 -9.519531 1.191406 -9.851562 1.515625 -10.21875 C 1.835938 -10.582031 2.175781 -10.863281 2.53125 -11.0625 C 2.882812 -11.257812 3.203125 -11.265625 3.484375 -11.078125 C 3.628906 -10.992188 3.738281 -10.851562 3.8125 -10.65625 C 3.894531 -10.457031 3.894531 -10.148438 3.8125 -9.734375 C 3.726562 -9.328125 3.53125 -8.773438 3.21875 -8.078125 C 2.90625 -7.390625 2.4375 -6.492188 1.8125 -5.390625 C 2.1875 -5.335938 2.609375 -5.441406 3.078125 -5.703125 C 3.546875 -5.972656 3.960938 -6.222656 4.328125 -6.453125 C 4.671875 -6.679688 4.957031 -6.847656 5.1875 -6.953125 C 5.425781 -7.066406 5.644531 -7.050781 5.84375 -6.90625 C 6.019531 -6.75 6.09375 -6.5625 6.0625 -6.34375 C 6.03125 -6.132812 6 -5.972656 5.96875 -5.859375 C 5.414062 -4.148438 4.988281 -2.722656 4.6875 -1.578125 C 4.394531 -0.441406 4.195312 0.46875 4.09375 1.15625 C 3.988281 1.851562 3.9375 2.375 3.9375 2.71875 C 3.9375 3.0625 3.957031 3.285156 4 3.390625 C 4.050781 3.503906 4.078125 3.570312 4.078125 3.59375 C 4.273438 3.625 4.679688 3.300781 5.296875 2.625 C 5.921875 1.957031 6.660156 0.953125 7.515625 -0.390625 C 8.378906 -1.734375 9.28125 -3.394531 10.21875 -5.375 C 10.28125 -5.5 10.375 -5.582031 10.5 -5.625 C 10.625 -5.664062 10.742188 -5.660156 10.859375 -5.609375 Z M 0.890625 -7.296875 C 0.785156 -6.953125 0.753906 -6.664062 0.796875 -6.4375 C 0.835938 -6.21875 0.898438 -6.039062 0.984375 -5.90625 C 1.515625 -6.832031 1.914062 -7.582031 2.1875 -8.15625 C 2.457031 -8.738281 2.640625 -9.1875 2.734375 -9.5 C 2.835938 -9.8125 2.898438 -10.035156 2.921875 -10.171875 C 2.734375 -10.066406 2.503906 -9.875 2.234375 -9.59375 C 1.960938 -9.3125 1.695312 -8.972656 1.4375 -8.578125 C 1.1875 -8.179688 1.003906 -7.753906 0.890625 -7.296875 Z M 0.890625 -7.296875 "/></g></g></g><g fill="#ffffff" fill-opacity="1"><g transform="translate(220.877379, 89.080045)"><g><path d="M 10.65625 -5.5625 C 10.757812 -5.5 10.828125 -5.398438 10.859375 -5.265625 C 10.890625 -5.140625 10.875 -5.023438 10.8125 -4.921875 C 10.394531 -4.242188 9.859375 -3.535156 9.203125 -2.796875 C 8.554688 -2.054688 7.863281 -1.359375 7.125 -0.703125 C 6.382812 -0.0546875 5.640625 0.472656 4.890625 0.890625 C 4.148438 1.304688 3.484375 1.515625 2.890625 1.515625 C 2.765625 1.515625 2.640625 1.503906 2.515625 1.484375 C 2.253906 1.429688 1.972656 1.285156 1.671875 1.046875 C 1.378906 0.804688 1.175781 0.382812 1.0625 -0.21875 C 1.03125 -0.382812 1.070312 -0.53125 1.1875 -0.65625 C 1.300781 -0.789062 1.484375 -0.96875 1.734375 -1.1875 C 1.929688 -1.351562 2.148438 -1.550781 2.390625 -1.78125 C 2.628906 -2.007812 2.851562 -2.253906 3.0625 -2.515625 C 3.394531 -2.960938 3.609375 -3.367188 3.703125 -3.734375 C 3.804688 -4.109375 3.84375 -4.375 3.8125 -4.53125 C 3.726562 -4.5 3.5625 -4.375 3.3125 -4.15625 C 3.0625 -3.9375 2.734375 -3.507812 2.328125 -2.875 C 1.828125 -2.125 1.382812 -1.289062 1 -0.375 C 0.613281 0.53125 0.257812 1.460938 -0.0625 2.421875 C -0.394531 3.378906 -0.695312 4.296875 -0.96875 5.171875 L -1.09375 5.515625 C -1.15625 5.734375 -1.300781 5.84375 -1.53125 5.84375 C -1.5625 5.84375 -1.585938 5.84375 -1.609375 5.84375 C -1.890625 5.789062 -2.019531 5.625 -2 5.34375 C -2 5.207031 -1.9375 4.832031 -1.8125 4.21875 C -1.6875 3.601562 -1.519531 2.8125 -1.3125 1.84375 C -1.113281 0.875 -0.882812 -0.195312 -0.625 -1.375 C -0.375 -2.550781 -0.101562 -3.757812 0.1875 -5 C 0.476562 -6.25 0.757812 -7.472656 1.03125 -8.671875 C 1.300781 -9.867188 1.550781 -10.96875 1.78125 -11.96875 C 1.800781 -12 1.8125 -12.039062 1.8125 -12.09375 C 2.101562 -13.332031 2.332031 -14.296875 2.5 -14.984375 C 2.875 -16.503906 3.289062 -17.882812 3.75 -19.125 C 4.21875 -20.375 4.675781 -21.375 5.125 -22.125 C 5.582031 -22.875 5.992188 -23.289062 6.359375 -23.375 C 6.617188 -23.425781 6.832031 -23.335938 7 -23.109375 C 7.226562 -22.785156 7.207031 -22.101562 6.9375 -21.0625 C 6.664062 -20.03125 6.164062 -18.710938 5.4375 -17.109375 C 4.71875 -15.515625 3.8125 -13.726562 2.71875 -11.75 C 2.46875 -10.726562 2.203125 -9.609375 1.921875 -8.390625 C 1.648438 -7.179688 1.375 -5.945312 1.09375 -4.6875 C 0.8125 -3.4375 0.546875 -2.242188 0.296875 -1.109375 C 0.472656 -1.503906 0.664062 -1.894531 0.875 -2.28125 C 1.082031 -2.675781 1.296875 -3.046875 1.515625 -3.390625 C 2.453125 -4.835938 3.257812 -5.535156 3.9375 -5.484375 C 4.28125 -5.453125 4.519531 -5.273438 4.65625 -4.953125 C 4.8125 -4.597656 4.804688 -4.132812 4.640625 -3.5625 C 4.484375 -3 4.207031 -2.453125 3.8125 -1.921875 C 3.582031 -1.628906 3.332031 -1.359375 3.0625 -1.109375 C 2.800781 -0.859375 2.5625 -0.644531 2.34375 -0.46875 C 2.300781 -0.414062 2.25 -0.363281 2.1875 -0.3125 C 2.132812 -0.269531 2.085938 -0.234375 2.046875 -0.203125 C 2.117188 0.078125 2.21875 0.265625 2.34375 0.359375 C 2.476562 0.460938 2.597656 0.523438 2.703125 0.546875 C 3.054688 0.609375 3.535156 0.492188 4.140625 0.203125 C 4.742188 -0.078125 5.394531 -0.5 6.09375 -1.0625 C 6.789062 -1.625 7.484375 -2.28125 8.171875 -3.03125 C 8.867188 -3.78125 9.476562 -4.578125 10 -5.421875 C 10.0625 -5.535156 10.15625 -5.601562 10.28125 -5.625 C 10.414062 -5.65625 10.539062 -5.632812 10.65625 -5.5625 Z M 6.15625 -21.984375 C 5.875 -21.578125 5.5 -20.847656 5.03125 -19.796875 C 4.5625 -18.753906 4.097656 -17.332031 3.640625 -15.53125 C 4.460938 -17.195312 5.066406 -18.566406 5.453125 -19.640625 C 5.835938 -20.710938 6.070312 -21.492188 6.15625 -21.984375 Z M 6.15625 -21.984375 "/></g></g></g><g fill="#ffffff" fill-opacity="1"><g transform="translate(230.526778, 89.080045)"><g/></g></g><g fill="#ffffff" fill-opacity="1"><g transform="translate(58.84912, 124.991372)"><g><path d="M 13.8125 -12.375 C 13.8125 -11.863281 13.789062 -11.375 13.75 -10.90625 C 13.707031 -10.445312 13.6875 -9.796875 13.6875 -8.953125 C 13.6875 -8.367188 13.695312 -7.878906 13.71875 -7.484375 C 13.75 -7.085938 13.769531 -6.726562 13.78125 -6.40625 C 13.800781 -6.082031 13.8125 -5.738281 13.8125 -5.375 C 13.8125 -4.28125 13.609375 -3.332031 13.203125 -2.53125 C 12.804688 -1.738281 12.148438 -1.117188 11.234375 -0.671875 C 10.328125 -0.222656 9.097656 0 7.546875 0 L 1.796875 0 C 1.640625 0 1.515625 -0.0507812 1.421875 -0.15625 C 1.328125 -0.257812 1.28125 -0.378906 1.28125 -0.515625 C 1.300781 -1.078125 1.328125 -2.070312 1.359375 -3.5 C 1.398438 -4.9375 1.421875 -6.769531 1.421875 -9 C 1.421875 -11.25 1.398438 -13.085938 1.359375 -14.515625 C 1.328125 -15.941406 1.300781 -16.9375 1.28125 -17.5 C 1.28125 -17.632812 1.328125 -17.753906 1.421875 -17.859375 C 1.515625 -17.960938 1.640625 -18.015625 1.796875 -18.015625 L 7.546875 -18.015625 C 9.085938 -18.015625 10.3125 -17.75 11.21875 -17.21875 C 12.125 -16.6875 12.773438 -16.003906 13.171875 -15.171875 C 13.566406 -14.335938 13.78125 -13.457031 13.8125 -12.53125 C 13.8125 -12.5 13.8125 -12.457031 13.8125 -12.40625 C 13.8125 -12.382812 13.8125 -12.375 13.8125 -12.375 Z M 7.484375 -2.734375 C 8.171875 -2.734375 8.675781 -2.863281 9 -3.125 C 9.332031 -3.394531 9.539062 -3.726562 9.625 -4.125 C 9.707031 -4.53125 9.75 -4.945312 9.75 -5.375 L 9.75 -12.375 C 9.75 -12.507812 9.734375 -12.734375 9.703125 -13.046875 C 9.679688 -13.367188 9.609375 -13.703125 9.484375 -14.046875 C 9.359375 -14.390625 9.144531 -14.679688 8.84375 -14.921875 C 8.539062 -15.160156 8.125 -15.28125 7.59375 -15.28125 L 5.734375 -15.28125 C 5.597656 -15.28125 5.476562 -15.234375 5.375 -15.140625 C 5.269531 -15.046875 5.21875 -14.929688 5.21875 -14.796875 C 5.207031 -14.054688 5.195312 -13.207031 5.1875 -12.25 C 5.175781 -11.289062 5.171875 -10.207031 5.171875 -9 C 5.171875 -7.820312 5.175781 -6.75 5.1875 -5.78125 C 5.195312 -4.8125 5.207031 -3.957031 5.21875 -3.21875 C 5.21875 -3.082031 5.269531 -2.96875 5.375 -2.875 C 5.476562 -2.78125 5.597656 -2.734375 5.734375 -2.734375 Z M 7.484375 -2.734375 "/></g></g></g><g fill="#ffffff" fill-opacity="1"><g transform="translate(73.94542, 124.991372)"><g><path d="M 5.296875 -0.515625 C 5.296875 -0.378906 5.25 -0.257812 5.15625 -0.15625 C 5.0625 -0.0507812 4.9375 0 4.78125 0 L 1.796875 0 C 1.640625 0 1.515625 -0.0507812 1.421875 -0.15625 C 1.328125 -0.257812 1.28125 -0.378906 1.28125 -0.515625 C 1.300781 -1.078125 1.328125 -2.070312 1.359375 -3.5 C 1.398438 -4.9375 1.421875 -6.769531 1.421875 -9 C 1.421875 -11.25 1.398438 -13.085938 1.359375 -14.515625 C 1.328125 -15.941406 1.300781 -16.9375 1.28125 -17.5 C 1.28125 -17.632812 1.328125 -17.753906 1.421875 -17.859375 C 1.515625 -17.960938 1.640625 -18.015625 1.796875 -18.015625 L 4.78125 -18.015625 C 4.9375 -18.015625 5.0625 -17.960938 5.15625 -17.859375 C 5.25 -17.753906 5.296875 -17.632812 5.296875 -17.5 C 5.285156 -16.9375 5.257812 -15.941406 5.21875 -14.515625 C 5.1875 -13.085938 5.171875 -11.25 5.171875 -9 C 5.171875 -6.769531 5.1875 -4.9375 5.21875 -3.5 C 5.257812 -2.070312 5.285156 -1.078125 5.296875 -0.515625 Z M 5.296875 -0.515625 "/></g></g></g><g fill="#ffffff" fill-opacity="1"><g transform="translate(80.529154, 124.991372)"><g><path d="M 7.59375 -9 C 7.59375 -9.144531 7.640625 -9.265625 7.734375 -9.359375 C 7.828125 -9.460938 7.941406 -9.515625 8.078125 -9.515625 L 13.328125 -9.515625 C 13.460938 -9.515625 13.578125 -9.460938 13.671875 -9.359375 C 13.765625 -9.265625 13.8125 -9.144531 13.8125 -9 L 13.8125 -5.4375 C 13.8125 -4.332031 13.613281 -3.351562 13.21875 -2.5 C 12.832031 -1.65625 12.175781 -0.988281 11.25 -0.5 C 10.332031 -0.0078125 9.101562 0.234375 7.5625 0.234375 C 5.988281 0.234375 4.738281 -0.0390625 3.8125 -0.59375 C 2.894531 -1.144531 2.242188 -1.851562 1.859375 -2.71875 C 1.472656 -3.582031 1.28125 -4.488281 1.28125 -5.4375 C 1.28125 -5.789062 1.289062 -6.128906 1.3125 -6.453125 C 1.332031 -6.785156 1.351562 -7.144531 1.375 -7.53125 C 1.40625 -7.925781 1.421875 -8.414062 1.421875 -9 C 1.421875 -9.582031 1.40625 -10.070312 1.375 -10.46875 C 1.351562 -10.863281 1.332031 -11.222656 1.3125 -11.546875 C 1.289062 -11.878906 1.28125 -12.222656 1.28125 -12.578125 C 1.28125 -13.679688 1.484375 -14.65625 1.890625 -15.5 C 2.296875 -16.351562 2.953125 -17.023438 3.859375 -17.515625 C 4.765625 -18.003906 6 -18.25 7.5625 -18.25 C 9.019531 -18.25 10.195312 -18.003906 11.09375 -17.515625 C 11.988281 -17.023438 12.648438 -16.394531 13.078125 -15.625 C 13.503906 -14.851562 13.75 -14.03125 13.8125 -13.15625 C 13.8125 -13 13.765625 -12.863281 13.671875 -12.75 C 13.578125 -12.632812 13.457031 -12.578125 13.3125 -12.578125 L 10.265625 -12.578125 C 9.960938 -12.578125 9.789062 -12.742188 9.75 -13.078125 C 9.738281 -13.367188 9.675781 -13.707031 9.5625 -14.09375 C 9.445312 -14.476562 9.238281 -14.8125 8.9375 -15.09375 C 8.644531 -15.375 8.207031 -15.515625 7.625 -15.515625 C 6.9375 -15.515625 6.425781 -15.359375 6.09375 -15.046875 C 5.769531 -14.742188 5.566406 -14.363281 5.484375 -13.90625 C 5.398438 -13.457031 5.359375 -13.015625 5.359375 -12.578125 L 5.359375 -5.4375 C 5.359375 -5.28125 5.367188 -5.039062 5.390625 -4.71875 C 5.421875 -4.40625 5.5 -4.078125 5.625 -3.734375 C 5.75 -3.390625 5.960938 -3.097656 6.265625 -2.859375 C 6.566406 -2.617188 6.984375 -2.5 7.515625 -2.5 C 8.179688 -2.5 8.691406 -2.648438 9.046875 -2.953125 C 9.410156 -3.265625 9.648438 -3.644531 9.765625 -4.09375 C 9.890625 -4.550781 9.953125 -5 9.953125 -5.4375 C 9.953125 -5.707031 9.953125 -6 9.953125 -6.3125 C 9.941406 -6.445312 9.890625 -6.5625 9.796875 -6.65625 C 9.703125 -6.75 9.582031 -6.796875 9.4375 -6.796875 L 8.078125 -6.796875 C 7.941406 -6.796875 7.828125 -6.84375 7.734375 -6.9375 C 7.640625 -7.03125 7.59375 -7.15625 7.59375 -7.3125 Z M 7.59375 -9 "/></g></g></g><g fill="#ffffff" fill-opacity="1"><g transform="translate(95.651174, 124.991372)"><g><path d="M 5.296875 -0.515625 C 5.296875 -0.378906 5.25 -0.257812 5.15625 -0.15625 C 5.0625 -0.0507812 4.9375 0 4.78125 0 L 1.796875 0 C 1.640625 0 1.515625 -0.0507812 1.421875 -0.15625 C 1.328125 -0.257812 1.28125 -0.378906 1.28125 -0.515625 C 1.300781 -1.078125 1.328125 -2.070312 1.359375 -3.5 C 1.398438 -4.9375 1.421875 -6.769531 1.421875 -9 C 1.421875 -11.25 1.398438 -13.085938 1.359375 -14.515625 C 1.328125 -15.941406 1.300781 -16.9375 1.28125 -17.5 C 1.28125 -17.632812 1.328125 -17.753906 1.421875 -17.859375 C 1.515625 -17.960938 1.640625 -18.015625 1.796875 -18.015625 L 4.78125 -18.015625 C 4.9375 -18.015625 5.0625 -17.960938 5.15625 -17.859375 C 5.25 -17.753906 5.296875 -17.632812 5.296875 -17.5 C 5.285156 -16.9375 5.257812 -15.941406 5.21875 -14.515625 C 5.1875 -13.085938 5.171875 -11.25 5.171875 -9 C 5.171875 -6.769531 5.1875 -4.9375 5.21875 -3.5 C 5.257812 -2.070312 5.285156 -1.078125 5.296875 -0.515625 Z M 5.296875 -0.515625 "/></g></g></g><g fill="#ffffff" fill-opacity="1"><g transform="translate(102.234908, 124.991372)"><g><path d="M 13.875 -15.796875 C 13.875 -15.660156 13.820312 -15.539062 13.71875 -15.4375 C 13.613281 -15.332031 13.492188 -15.28125 13.359375 -15.28125 L 10.015625 -15.28125 C 9.878906 -15.28125 9.757812 -15.234375 9.65625 -15.140625 C 9.5625 -15.046875 9.515625 -14.929688 9.515625 -14.796875 C 9.503906 -14.054688 9.492188 -13.207031 9.484375 -12.25 C 9.472656 -11.289062 9.46875 -10.207031 9.46875 -9 C 9.46875 -6.769531 9.476562 -4.9375 9.5 -3.5 C 9.53125 -2.070312 9.554688 -1.078125 9.578125 -0.515625 C 9.585938 -0.378906 9.539062 -0.257812 9.4375 -0.15625 C 9.34375 -0.0507812 9.222656 0 9.078125 0 L 6.078125 0 C 5.941406 0 5.820312 -0.0507812 5.71875 -0.15625 C 5.613281 -0.257812 5.5625 -0.378906 5.5625 -0.515625 C 5.59375 -1.078125 5.617188 -2.070312 5.640625 -3.5 C 5.671875 -4.9375 5.6875 -6.769531 5.6875 -9 C 5.6875 -10.207031 5.679688 -11.289062 5.671875 -12.25 C 5.660156 -13.207031 5.648438 -14.054688 5.640625 -14.796875 C 5.640625 -14.929688 5.59375 -15.046875 5.5 -15.140625 C 5.40625 -15.234375 5.28125 -15.28125 5.125 -15.28125 L 1.796875 -15.28125 C 1.660156 -15.28125 1.539062 -15.332031 1.4375 -15.4375 C 1.332031 -15.539062 1.28125 -15.660156 1.28125 -15.796875 L 1.28125 -17.5 C 1.28125 -17.632812 1.332031 -17.753906 1.4375 -17.859375 C 1.539062 -17.960938 1.660156 -18.015625 1.796875 -18.015625 L 13.359375 -18.015625 C 13.492188 -18.015625 13.613281 -17.960938 13.71875 -17.859375 C 13.820312 -17.753906 13.875 -17.632812 13.875 -17.5 Z M 13.875 -15.796875 "/></g></g></g><g fill="#ffffff" fill-opacity="1"><g transform="translate(117.382636, 124.991372)"><g><path d="M 12.328125 0 C 12.035156 0 11.863281 -0.132812 11.8125 -0.40625 C 11.78125 -0.644531 11.71875 -0.988281 11.625 -1.4375 C 11.539062 -1.882812 11.441406 -2.4375 11.328125 -3.09375 C 11.273438 -3.363281 11.109375 -3.5 10.828125 -3.5 L 6.171875 -3.5 C 5.898438 -3.5 5.726562 -3.363281 5.65625 -3.09375 C 5.539062 -2.4375 5.441406 -1.882812 5.359375 -1.4375 C 5.285156 -0.988281 5.222656 -0.644531 5.171875 -0.40625 C 5.140625 -0.132812 4.976562 0 4.6875 0 L 1.671875 0 C 1.503906 0 1.367188 -0.0625 1.265625 -0.1875 C 1.160156 -0.320312 1.132812 -0.46875 1.1875 -0.625 C 1.320312 -1.21875 1.550781 -2.222656 1.875 -3.640625 C 2.207031 -5.054688 2.601562 -6.84375 3.0625 -9 C 3.5625 -11.320312 3.945312 -13.207031 4.21875 -14.65625 C 4.488281 -16.101562 4.671875 -17.085938 4.765625 -17.609375 C 4.816406 -17.878906 4.976562 -18.015625 5.25 -18.015625 L 11.734375 -18.015625 C 12.023438 -18.015625 12.195312 -17.878906 12.25 -17.609375 C 12.332031 -17.085938 12.507812 -16.101562 12.78125 -14.65625 C 13.0625 -13.207031 13.441406 -11.320312 13.921875 -9 C 14.378906 -6.84375 14.769531 -5.054688 15.09375 -3.640625 C 15.425781 -2.222656 15.671875 -1.21875 15.828125 -0.625 C 15.859375 -0.46875 15.820312 -0.320312 15.71875 -0.1875 C 15.613281 -0.0625 15.488281 0 15.34375 0 Z M 6.921875 -6.234375 L 10.09375 -6.234375 C 10.238281 -6.234375 10.363281 -6.289062 10.46875 -6.40625 C 10.570312 -6.53125 10.609375 -6.664062 10.578125 -6.8125 C 10.503906 -7.15625 10.429688 -7.507812 10.359375 -7.875 C 10.285156 -8.25 10.203125 -8.625 10.109375 -9 C 9.859375 -10.21875 9.625 -11.320312 9.40625 -12.3125 C 9.1875 -13.300781 8.992188 -14.15625 8.828125 -14.875 C 8.796875 -15.039062 8.6875 -15.125 8.5 -15.125 C 8.320312 -15.125 8.207031 -15.039062 8.15625 -14.875 C 8 -14.15625 7.804688 -13.300781 7.578125 -12.3125 C 7.359375 -11.320312 7.125 -10.21875 6.875 -9 C 6.789062 -8.625 6.707031 -8.25 6.625 -7.875 C 6.550781 -7.507812 6.476562 -7.15625 6.40625 -6.8125 C 6.375 -6.664062 6.410156 -6.53125 6.515625 -6.40625 C 6.617188 -6.289062 6.753906 -6.234375 6.921875 -6.234375 Z M 6.921875 -6.234375 "/></g></g></g><g fill="#ffffff" fill-opacity="1"><g transform="translate(134.382047, 124.991372)"><g><path d="M 5.125 -3.25 C 5.125 -3.101562 5.171875 -2.976562 5.265625 -2.875 C 5.359375 -2.78125 5.472656 -2.734375 5.609375 -2.734375 L 10.625 -2.734375 C 10.757812 -2.734375 10.878906 -2.679688 10.984375 -2.578125 C 11.085938 -2.472656 11.140625 -2.351562 11.140625 -2.21875 L 11.140625 -0.515625 C 11.140625 -0.378906 11.085938 -0.257812 10.984375 -0.15625 C 10.878906 -0.0507812 10.757812 0 10.625 0 L 1.796875 0 C 1.660156 0 1.539062 -0.0507812 1.4375 -0.15625 C 1.332031 -0.257812 1.28125 -0.378906 1.28125 -0.515625 L 1.28125 -17.5 C 1.28125 -17.632812 1.332031 -17.753906 1.4375 -17.859375 C 1.539062 -17.960938 1.660156 -18.015625 1.796875 -18.015625 L 4.8125 -18.015625 C 4.96875 -18.015625 5.09375 -17.960938 5.1875 -17.859375 C 5.28125 -17.753906 5.328125 -17.632812 5.328125 -17.5 C 5.328125 -17.03125 5.3125 -16.300781 5.28125 -15.3125 C 5.257812 -14.332031 5.238281 -13.179688 5.21875 -11.859375 C 5.207031 -10.535156 5.1875 -9.132812 5.15625 -7.65625 C 5.132812 -6.175781 5.125 -4.707031 5.125 -3.25 Z M 5.125 -3.25 "/></g></g></g><g fill="#ffffff" fill-opacity="1"><g transform="translate(146.675114, 124.991372)"><g/></g></g><g fill="#ffffff" fill-opacity="1"><g transform="translate(154.338987, 124.991372)"><g><path d="M 7.5625 -18.015625 C 9.144531 -18.015625 10.390625 -17.785156 11.296875 -17.328125 C 12.203125 -16.878906 12.851562 -16.234375 13.25 -15.390625 C 13.644531 -14.546875 13.84375 -13.539062 13.84375 -12.375 C 13.84375 -11.195312 13.644531 -10.203125 13.25 -9.390625 C 12.851562 -8.585938 12.203125 -7.976562 11.296875 -7.5625 C 10.390625 -7.15625 9.144531 -6.953125 7.5625 -6.953125 L 5.6875 -6.953125 C 5.550781 -6.953125 5.429688 -6.898438 5.328125 -6.796875 C 5.222656 -6.691406 5.179688 -6.570312 5.203125 -6.4375 C 5.203125 -4.925781 5.210938 -3.671875 5.234375 -2.671875 C 5.265625 -1.679688 5.285156 -0.960938 5.296875 -0.515625 C 5.296875 -0.378906 5.25 -0.257812 5.15625 -0.15625 C 5.0625 -0.0507812 4.9375 0 4.78125 0 L 1.796875 0 C 1.640625 0 1.515625 -0.0507812 1.421875 -0.15625 C 1.328125 -0.257812 1.28125 -0.378906 1.28125 -0.515625 C 1.300781 -1.078125 1.328125 -2.070312 1.359375 -3.5 C 1.398438 -4.9375 1.421875 -6.769531 1.421875 -9 C 1.421875 -11.25 1.398438 -13.085938 1.359375 -14.515625 C 1.328125 -15.941406 1.300781 -16.9375 1.28125 -17.5 C 1.28125 -17.632812 1.328125 -17.753906 1.421875 -17.859375 C 1.515625 -17.960938 1.640625 -18.015625 1.796875 -18.015625 Z M 7.625 -9.671875 C 8.320312 -9.671875 8.820312 -9.8125 9.125 -10.09375 C 9.4375 -10.382812 9.625 -10.738281 9.6875 -11.15625 C 9.75 -11.570312 9.78125 -11.976562 9.78125 -12.375 C 9.78125 -12.75 9.75 -13.164062 9.6875 -13.625 C 9.625 -14.082031 9.4375 -14.472656 9.125 -14.796875 C 8.820312 -15.117188 8.320312 -15.28125 7.625 -15.28125 L 5.734375 -15.28125 C 5.597656 -15.28125 5.476562 -15.234375 5.375 -15.140625 C 5.269531 -15.046875 5.21875 -14.929688 5.21875 -14.796875 C 5.21875 -14.179688 5.207031 -13.488281 5.1875 -12.71875 C 5.175781 -11.957031 5.171875 -11.113281 5.171875 -10.1875 C 5.171875 -10.03125 5.222656 -9.90625 5.328125 -9.8125 C 5.429688 -9.71875 5.550781 -9.671875 5.6875 -9.671875 Z M 7.625 -9.671875 "/></g></g></g><g fill="#ffffff" fill-opacity="1"><g transform="translate(169.461007, 124.991372)"><g><path d="M 13.8125 -12.578125 C 13.8125 -12.222656 13.800781 -11.878906 13.78125 -11.546875 C 13.769531 -11.222656 13.753906 -10.863281 13.734375 -10.46875 C 13.722656 -10.070312 13.71875 -9.582031 13.71875 -9 C 13.71875 -8.414062 13.722656 -7.925781 13.734375 -7.53125 C 13.753906 -7.144531 13.769531 -6.785156 13.78125 -6.453125 C 13.800781 -6.128906 13.8125 -5.789062 13.8125 -5.4375 C 13.8125 -4.332031 13.613281 -3.351562 13.21875 -2.5 C 12.832031 -1.65625 12.175781 -0.988281 11.25 -0.5 C 10.332031 -0.0078125 9.101562 0.234375 7.5625 0.234375 C 5.988281 0.234375 4.738281 -0.0390625 3.8125 -0.59375 C 2.894531 -1.144531 2.242188 -1.851562 1.859375 -2.71875 C 1.472656 -3.582031 1.28125 -4.488281 1.28125 -5.4375 C 1.28125 -5.789062 1.289062 -6.128906 1.3125 -6.453125 C 1.332031 -6.785156 1.351562 -7.144531 1.375 -7.53125 C 1.40625 -7.925781 1.421875 -8.414062 1.421875 -9 C 1.421875 -9.582031 1.40625 -10.070312 1.375 -10.46875 C 1.351562 -10.863281 1.332031 -11.222656 1.3125 -11.546875 C 1.289062 -11.878906 1.28125 -12.222656 1.28125 -12.578125 C 1.28125 -13.679688 1.484375 -14.65625 1.890625 -15.5 C 2.296875 -16.351562 2.953125 -17.023438 3.859375 -17.515625 C 4.765625 -18.003906 6 -18.25 7.5625 -18.25 C 9.125 -18.25 10.363281 -17.972656 11.28125 -17.421875 C 12.195312 -16.867188 12.847656 -16.160156 13.234375 -15.296875 C 13.617188 -14.429688 13.8125 -13.523438 13.8125 -12.578125 Z M 7.515625 -2.5 C 8.179688 -2.5 8.675781 -2.648438 9 -2.953125 C 9.332031 -3.265625 9.546875 -3.644531 9.640625 -4.09375 C 9.734375 -4.550781 9.78125 -5 9.78125 -5.4375 L 9.78125 -12.578125 C 9.78125 -12.734375 9.757812 -12.96875 9.71875 -13.28125 C 9.6875 -13.601562 9.609375 -13.9375 9.484375 -14.28125 C 9.359375 -14.625 9.148438 -14.914062 8.859375 -15.15625 C 8.566406 -15.394531 8.15625 -15.515625 7.625 -15.515625 C 6.9375 -15.515625 6.425781 -15.359375 6.09375 -15.046875 C 5.769531 -14.742188 5.566406 -14.363281 5.484375 -13.90625 C 5.398438 -13.457031 5.359375 -13.015625 5.359375 -12.578125 L 5.359375 -5.4375 C 5.359375 -5.28125 5.367188 -5.039062 5.390625 -4.71875 C 5.421875 -4.40625 5.5 -4.078125 5.625 -3.734375 C 5.75 -3.390625 5.960938 -3.097656 6.265625 -2.859375 C 6.566406 -2.617188 6.984375 -2.5 7.515625 -2.5 Z M 7.515625 -2.5 "/></g></g></g><g fill="#ffffff" fill-opacity="1"><g transform="translate(184.583027, 124.991372)"><g><path d="M 13.234375 0 L 9.953125 0 C 9.816406 0 9.695312 -0.0507812 9.59375 -0.15625 C 9.488281 -0.257812 9.4375 -0.378906 9.4375 -0.515625 L 9.4375 -4.484375 C 9.4375 -4.867188 9.375 -5.25 9.25 -5.625 C 9.132812 -6.007812 8.914062 -6.328125 8.59375 -6.578125 C 8.28125 -6.828125 7.84375 -6.953125 7.28125 -6.953125 L 5.6875 -6.953125 C 5.550781 -6.953125 5.429688 -6.898438 5.328125 -6.796875 C 5.222656 -6.691406 5.179688 -6.570312 5.203125 -6.4375 C 5.203125 -4.925781 5.210938 -3.671875 5.234375 -2.671875 C 5.265625 -1.679688 5.285156 -0.960938 5.296875 -0.515625 C 5.296875 -0.378906 5.25 -0.257812 5.15625 -0.15625 C 5.0625 -0.0507812 4.9375 0 4.78125 0 L 1.796875 0 C 1.640625 0 1.515625 -0.0507812 1.421875 -0.15625 C 1.328125 -0.257812 1.28125 -0.378906 1.28125 -0.515625 C 1.300781 -1.078125 1.328125 -2.070312 1.359375 -3.5 C 1.398438 -4.9375 1.421875 -6.769531 1.421875 -9 C 1.421875 -11.25 1.398438 -13.085938 1.359375 -14.515625 C 1.328125 -15.941406 1.300781 -16.9375 1.28125 -17.5 C 1.28125 -17.632812 1.328125 -17.753906 1.421875 -17.859375 C 1.515625 -17.960938 1.640625 -18.015625 1.796875 -18.015625 L 7.390625 -18.015625 C 8.222656 -18.015625 9.015625 -17.9375 9.765625 -17.78125 C 10.523438 -17.625 11.195312 -17.347656 11.78125 -16.953125 C 12.363281 -16.554688 12.820312 -16.003906 13.15625 -15.296875 C 13.5 -14.597656 13.671875 -13.703125 13.671875 -12.609375 C 13.671875 -11.597656 13.441406 -10.757812 12.984375 -10.09375 C 12.523438 -9.4375 11.9375 -8.921875 11.21875 -8.546875 C 11.15625 -8.515625 11.125 -8.453125 11.125 -8.359375 C 11.125 -8.273438 11.164062 -8.207031 11.25 -8.15625 C 11.894531 -7.84375 12.429688 -7.390625 12.859375 -6.796875 C 13.296875 -6.210938 13.515625 -5.441406 13.515625 -4.484375 C 13.515625 -3.554688 13.539062 -2.757812 13.59375 -2.09375 C 13.644531 -1.4375 13.691406 -0.925781 13.734375 -0.5625 C 13.753906 -0.40625 13.710938 -0.269531 13.609375 -0.15625 C 13.503906 -0.0507812 13.378906 0 13.234375 0 Z M 7.4375 -15.28125 L 5.734375 -15.28125 C 5.597656 -15.28125 5.476562 -15.234375 5.375 -15.140625 C 5.269531 -15.046875 5.21875 -14.929688 5.21875 -14.796875 C 5.21875 -14.179688 5.207031 -13.488281 5.1875 -12.71875 C 5.175781 -11.957031 5.171875 -11.113281 5.171875 -10.1875 C 5.171875 -10.03125 5.222656 -9.90625 5.328125 -9.8125 C 5.429688 -9.71875 5.550781 -9.671875 5.6875 -9.671875 L 7.4375 -9.671875 C 8 -9.671875 8.4375 -9.832031 8.75 -10.15625 C 9.070312 -10.488281 9.289062 -10.878906 9.40625 -11.328125 C 9.53125 -11.785156 9.59375 -12.210938 9.59375 -12.609375 C 9.59375 -13.296875 9.46875 -13.832031 9.21875 -14.21875 C 8.976562 -14.601562 8.6875 -14.875 8.34375 -15.03125 C 8.007812 -15.195312 7.707031 -15.28125 7.4375 -15.28125 Z M 7.4375 -15.28125 "/></g></g></g><g fill="#ffffff" fill-opacity="1"><g transform="translate(199.602166, 124.991372)"><g><path d="M 13.875 -15.796875 C 13.875 -15.660156 13.820312 -15.539062 13.71875 -15.4375 C 13.613281 -15.332031 13.492188 -15.28125 13.359375 -15.28125 L 10.015625 -15.28125 C 9.878906 -15.28125 9.757812 -15.234375 9.65625 -15.140625 C 9.5625 -15.046875 9.515625 -14.929688 9.515625 -14.796875 C 9.503906 -14.054688 9.492188 -13.207031 9.484375 -12.25 C 9.472656 -11.289062 9.46875 -10.207031 9.46875 -9 C 9.46875 -6.769531 9.476562 -4.9375 9.5 -3.5 C 9.53125 -2.070312 9.554688 -1.078125 9.578125 -0.515625 C 9.585938 -0.378906 9.539062 -0.257812 9.4375 -0.15625 C 9.34375 -0.0507812 9.222656 0 9.078125 0 L 6.078125 0 C 5.941406 0 5.820312 -0.0507812 5.71875 -0.15625 C 5.613281 -0.257812 5.5625 -0.378906 5.5625 -0.515625 C 5.59375 -1.078125 5.617188 -2.070312 5.640625 -3.5 C 5.671875 -4.9375 5.6875 -6.769531 5.6875 -9 C 5.6875 -10.207031 5.679688 -11.289062 5.671875 -12.25 C 5.660156 -13.207031 5.648438 -14.054688 5.640625 -14.796875 C 5.640625 -14.929688 5.59375 -15.046875 5.5 -15.140625 C 5.40625 -15.234375 5.28125 -15.28125 5.125 -15.28125 L 1.796875 -15.28125 C 1.660156 -15.28125 1.539062 -15.332031 1.4375 -15.4375 C 1.332031 -15.539062 1.28125 -15.660156 1.28125 -15.796875 L 1.28125 -17.5 C 1.28125 -17.632812 1.332031 -17.753906 1.4375 -17.859375 C 1.539062 -17.960938 1.660156 -18.015625 1.796875 -18.015625 L 13.359375 -18.015625 C 13.492188 -18.015625 13.613281 -17.960938 13.71875 -17.859375 C 13.820312 -17.753906 13.875 -17.632812 13.875 -17.5 Z M 13.875 -15.796875 "/></g></g></g><g fill="#ffffff" fill-opacity="1"><g transform="translate(214.749894, 124.991372)"><g><path d="M 5.328125 -18.015625 L 12.453125 -18.015625 C 12.609375 -18.015625 12.734375 -17.960938 12.828125 -17.859375 C 12.921875 -17.753906 12.96875 -17.632812 12.96875 -17.5 L 12.96875 -15.796875 C 12.96875 -15.660156 12.921875 -15.539062 12.828125 -15.4375 C 12.734375 -15.332031 12.609375 -15.28125 12.453125 -15.28125 L 5.734375 -15.28125 C 5.597656 -15.28125 5.476562 -15.234375 5.375 -15.140625 C 5.269531 -15.046875 5.21875 -14.929688 5.21875 -14.796875 C 5.21875 -14.265625 5.210938 -13.671875 5.203125 -13.015625 C 5.203125 -12.367188 5.191406 -11.660156 5.171875 -10.890625 C 5.171875 -10.753906 5.222656 -10.632812 5.328125 -10.53125 C 5.429688 -10.425781 5.550781 -10.375 5.6875 -10.375 L 11.125 -10.375 C 11.257812 -10.375 11.375 -10.320312 11.46875 -10.21875 C 11.570312 -10.113281 11.625 -9.992188 11.625 -9.859375 L 11.625 -8.15625 C 11.625 -8.019531 11.570312 -7.898438 11.46875 -7.796875 C 11.375 -7.691406 11.257812 -7.640625 11.125 -7.640625 L 5.6875 -7.640625 C 5.550781 -7.640625 5.429688 -7.585938 5.328125 -7.484375 C 5.222656 -7.378906 5.171875 -7.257812 5.171875 -7.125 C 5.191406 -5.425781 5.210938 -4.019531 5.234375 -2.90625 C 5.265625 -1.789062 5.285156 -0.992188 5.296875 -0.515625 C 5.296875 -0.378906 5.25 -0.257812 5.15625 -0.15625 C 5.0625 -0.0507812 4.9375 0 4.78125 0 L 1.796875 0 C 1.640625 0 1.515625 -0.0507812 1.421875 -0.15625 C 1.328125 -0.257812 1.28125 -0.378906 1.28125 -0.515625 C 1.300781 -1.078125 1.328125 -2.070312 1.359375 -3.5 C 1.398438 -4.9375 1.421875 -6.769531 1.421875 -9 C 1.421875 -11.25 1.398438 -13.085938 1.359375 -14.515625 C 1.328125 -15.941406 1.300781 -16.9375 1.28125 -17.5 C 1.28125 -17.632812 1.328125 -17.753906 1.421875 -17.859375 C 1.515625 -17.960938 1.640625 -18.015625 1.796875 -18.015625 Z M 5.328125 -18.015625 "/></g></g></g><g fill="#ffffff" fill-opacity="1"><g transform="translate(229.02322, 124.991372)"><g><path d="M 13.8125 -12.578125 C 13.8125 -12.222656 13.800781 -11.878906 13.78125 -11.546875 C 13.769531 -11.222656 13.753906 -10.863281 13.734375 -10.46875 C 13.722656 -10.070312 13.71875 -9.582031 13.71875 -9 C 13.71875 -8.414062 13.722656 -7.925781 13.734375 -7.53125 C 13.753906 -7.144531 13.769531 -6.785156 13.78125 -6.453125 C 13.800781 -6.128906 13.8125 -5.789062 13.8125 -5.4375 C 13.8125 -4.332031 13.613281 -3.351562 13.21875 -2.5 C 12.832031 -1.65625 12.175781 -0.988281 11.25 -0.5 C 10.332031 -0.0078125 9.101562 0.234375 7.5625 0.234375 C 5.988281 0.234375 4.738281 -0.0390625 3.8125 -0.59375 C 2.894531 -1.144531 2.242188 -1.851562 1.859375 -2.71875 C 1.472656 -3.582031 1.28125 -4.488281 1.28125 -5.4375 C 1.28125 -5.789062 1.289062 -6.128906 1.3125 -6.453125 C 1.332031 -6.785156 1.351562 -7.144531 1.375 -7.53125 C 1.40625 -7.925781 1.421875 -8.414062 1.421875 -9 C 1.421875 -9.582031 1.40625 -10.070312 1.375 -10.46875 C 1.351562 -10.863281 1.332031 -11.222656 1.3125 -11.546875 C 1.289062 -11.878906 1.28125 -12.222656 1.28125 -12.578125 C 1.28125 -13.679688 1.484375 -14.65625 1.890625 -15.5 C 2.296875 -16.351562 2.953125 -17.023438 3.859375 -17.515625 C 4.765625 -18.003906 6 -18.25 7.5625 -18.25 C 9.125 -18.25 10.363281 -17.972656 11.28125 -17.421875 C 12.195312 -16.867188 12.847656 -16.160156 13.234375 -15.296875 C 13.617188 -14.429688 13.8125 -13.523438 13.8125 -12.578125 Z M 7.515625 -2.5 C 8.179688 -2.5 8.675781 -2.648438 9 -2.953125 C 9.332031 -3.265625 9.546875 -3.644531 9.640625 -4.09375 C 9.734375 -4.550781 9.78125 -5 9.78125 -5.4375 L 9.78125 -12.578125 C 9.78125 -12.734375 9.757812 -12.96875 9.71875 -13.28125 C 9.6875 -13.601562 9.609375 -13.9375 9.484375 -14.28125 C 9.359375 -14.625 9.148438 -14.914062 8.859375 -15.15625 C 8.566406 -15.394531 8.15625 -15.515625 7.625 -15.515625 C 6.9375 -15.515625 6.425781 -15.359375 6.09375 -15.046875 C 5.769531 -14.742188 5.566406 -14.363281 5.484375 -13.90625 C 5.398438 -13.457031 5.359375 -13.015625 5.359375 -12.578125 L 5.359375 -5.4375 C 5.359375 -5.28125 5.367188 -5.039062 5.390625 -4.71875 C 5.421875 -4.40625 5.5 -4.078125 5.625 -3.734375 C 5.75 -3.390625 5.960938 -3.097656 6.265625 -2.859375 C 6.566406 -2.617188 6.984375 -2.5 7.515625 -2.5 Z M 7.515625 -2.5 "/></g></g></g><g fill="#ffffff" fill-opacity="1"><g transform="translate(244.14524, 124.991372)"><g><path d="M 5.125 -3.25 C 5.125 -3.101562 5.171875 -2.976562 5.265625 -2.875 C 5.359375 -2.78125 5.472656 -2.734375 5.609375 -2.734375 L 10.625 -2.734375 C 10.757812 -2.734375 10.878906 -2.679688 10.984375 -2.578125 C 11.085938 -2.472656 11.140625 -2.351562 11.140625 -2.21875 L 11.140625 -0.515625 C 11.140625 -0.378906 11.085938 -0.257812 10.984375 -0.15625 C 10.878906 -0.0507812 10.757812 0 10.625 0 L 1.796875 0 C 1.660156 0 1.539062 -0.0507812 1.4375 -0.15625 C 1.332031 -0.257812 1.28125 -0.378906 1.28125 -0.515625 L 1.28125 -17.5 C 1.28125 -17.632812 1.332031 -17.753906 1.4375 -17.859375 C 1.539062 -17.960938 1.660156 -18.015625 1.796875 -18.015625 L 4.8125 -18.015625 C 4.96875 -18.015625 5.09375 -17.960938 5.1875 -17.859375 C 5.28125 -17.753906 5.328125 -17.632812 5.328125 -17.5 C 5.328125 -17.03125 5.3125 -16.300781 5.28125 -15.3125 C 5.257812 -14.332031 5.238281 -13.179688 5.21875 -11.859375 C 5.207031 -10.535156 5.1875 -9.132812 5.15625 -7.65625 C 5.132812 -6.175781 5.125 -4.707031 5.125 -3.25 Z M 5.125 -3.25 "/></g></g></g><g fill="#ffffff" fill-opacity="1"><g transform="translate(256.438319, 124.991372)"><g><path d="M 5.296875 -0.515625 C 5.296875 -0.378906 5.25 -0.257812 5.15625 -0.15625 C 5.0625 -0.0507812 4.9375 0 4.78125 0 L 1.796875 0 C 1.640625 0 1.515625 -0.0507812 1.421875 -0.15625 C 1.328125 -0.257812 1.28125 -0.378906 1.28125 -0.515625 C 1.300781 -1.078125 1.328125 -2.070312 1.359375 -3.5 C 1.398438 -4.9375 1.421875 -6.769531 1.421875 -9 C 1.421875 -11.25 1.398438 -13.085938 1.359375 -14.515625 C 1.328125 -15.941406 1.300781 -16.9375 1.28125 -17.5 C 1.28125 -17.632812 1.328125 -17.753906 1.421875 -17.859375 C 1.515625 -17.960938 1.640625 -18.015625 1.796875 -18.015625 L 4.78125 -18.015625 C 4.9375 -18.015625 5.0625 -17.960938 5.15625 -17.859375 C 5.25 -17.753906 5.296875 -17.632812 5.296875 -17.5 C 5.285156 -16.9375 5.257812 -15.941406 5.21875 -14.515625 C 5.1875 -13.085938 5.171875 -11.25 5.171875 -9 C 5.171875 -6.769531 5.1875 -4.9375 5.21875 -3.5 C 5.257812 -2.070312 5.285156 -1.078125 5.296875 -0.515625 Z M 5.296875 -0.515625 "/></g></g></g><g fill="#ffffff" fill-opacity="1"><g transform="translate(263.022053, 124.991372)"><g><path d="M 13.8125 -12.578125 C 13.8125 -12.222656 13.800781 -11.878906 13.78125 -11.546875 C 13.769531 -11.222656 13.753906 -10.863281 13.734375 -10.46875 C 13.722656 -10.070312 13.71875 -9.582031 13.71875 -9 C 13.71875 -8.414062 13.722656 -7.925781 13.734375 -7.53125 C 13.753906 -7.144531 13.769531 -6.785156 13.78125 -6.453125 C 13.800781 -6.128906 13.8125 -5.789062 13.8125 -5.4375 C 13.8125 -4.332031 13.613281 -3.351562 13.21875 -2.5 C 12.832031 -1.65625 12.175781 -0.988281 11.25 -0.5 C 10.332031 -0.0078125 9.101562 0.234375 7.5625 0.234375 C 5.988281 0.234375 4.738281 -0.0390625 3.8125 -0.59375 C 2.894531 -1.144531 2.242188 -1.851562 1.859375 -2.71875 C 1.472656 -3.582031 1.28125 -4.488281 1.28125 -5.4375 C 1.28125 -5.789062 1.289062 -6.128906 1.3125 -6.453125 C 1.332031 -6.785156 1.351562 -7.144531 1.375 -7.53125 C 1.40625 -7.925781 1.421875 -8.414062 1.421875 -9 C 1.421875 -9.582031 1.40625 -10.070312 1.375 -10.46875 C 1.351562 -10.863281 1.332031 -11.222656 1.3125 -11.546875 C 1.289062 -11.878906 1.28125 -12.222656 1.28125 -12.578125 C 1.28125 -13.679688 1.484375 -14.65625 1.890625 -15.5 C 2.296875 -16.351562 2.953125 -17.023438 3.859375 -17.515625 C 4.765625 -18.003906 6 -18.25 7.5625 -18.25 C 9.125 -18.25 10.363281 -17.972656 11.28125 -17.421875 C 12.195312 -16.867188 12.847656 -16.160156 13.234375 -15.296875 C 13.617188 -14.429688 13.8125 -13.523438 13.8125 -12.578125 Z M 7.515625 -2.5 C 8.179688 -2.5 8.675781 -2.648438 9 -2.953125 C 9.332031 -3.265625 9.546875 -3.644531 9.640625 -4.09375 C 9.734375 -4.550781 9.78125 -5 9.78125 -5.4375 L 9.78125 -12.578125 C 9.78125 -12.734375 9.757812 -12.96875 9.71875 -13.28125 C 9.6875 -13.601562 9.609375 -13.9375 9.484375 -14.28125 C 9.359375 -14.625 9.148438 -14.914062 8.859375 -15.15625 C 8.566406 -15.394531 8.15625 -15.515625 7.625 -15.515625 C 6.9375 -15.515625 6.425781 -15.359375 6.09375 -15.046875 C 5.769531 -14.742188 5.566406 -14.363281 5.484375 -13.90625 C 5.398438 -13.457031 5.359375 -13.015625 5.359375 -12.578125 L 5.359375 -5.4375 C 5.359375 -5.28125 5.367188 -5.039062 5.390625 -4.71875 C 5.421875 -4.40625 5.5 -4.078125 5.625 -3.734375 C 5.75 -3.390625 5.960938 -3.097656 6.265625 -2.859375 C 6.566406 -2.617188 6.984375 -2.5 7.515625 -2.5 Z M 7.515625 -2.5 "/></g></g></g><g fill="#ffffff" fill-opacity="1"><g transform="translate(130.8358, 175.60455)"><g><path d="M 17.53125 0 L 0.796875 0 L 0.796875 -3.53125 C 0.796875 -4.363281 1.035156 -5.046875 1.515625 -5.578125 C 2.003906 -6.117188 2.628906 -6.554688 3.390625 -6.890625 C 4.148438 -7.222656 4.96875 -7.488281 5.84375 -7.6875 C 6.726562 -7.882812 7.582031 -8.050781 8.40625 -8.1875 C 9.488281 -8.363281 10.351562 -8.554688 11 -8.765625 C 11.488281 -8.921875 11.734375 -9.140625 11.734375 -9.421875 C 11.734375 -9.515625 11.707031 -9.609375 11.65625 -9.703125 C 11.207031 -10.378906 10.460938 -10.71875 9.421875 -10.71875 C 8.390625 -10.71875 7.640625 -10.378906 7.171875 -9.703125 L 0.828125 -9.703125 C 1.046875 -10.648438 1.460938 -11.484375 2.078125 -12.203125 C 2.691406 -12.929688 3.585938 -13.503906 4.765625 -13.921875 C 5.941406 -14.335938 7.492188 -14.546875 9.421875 -14.546875 C 11.347656 -14.546875 12.898438 -14.335938 14.078125 -13.921875 C 15.253906 -13.503906 16.148438 -12.929688 16.765625 -12.203125 C 17.378906 -11.484375 17.789062 -10.648438 18 -9.703125 C 18.039062 -9.484375 18.0625 -9.273438 18.0625 -9.078125 C 18.0625 -8.117188 17.695312 -7.328125 16.96875 -6.703125 C 16.238281 -6.085938 15.25 -5.617188 14 -5.296875 C 12.75 -4.984375 11.53125 -4.742188 10.34375 -4.578125 C 9.738281 -4.492188 9.191406 -4.40625 8.703125 -4.3125 C 8.222656 -4.21875 7.84375 -4.109375 7.5625 -3.984375 C 7.28125 -3.859375 7.140625 -3.707031 7.140625 -3.53125 L 17.53125 -3.53125 Z M 17.53125 0 "/></g></g></g><g fill="#ffffff" fill-opacity="1"><g transform="translate(149.674678, 175.60455)"><g><path d="M 9.421875 0.3125 C 6.378906 0.3125 4.140625 -0.410156 2.703125 -1.859375 C 1.429688 -3.148438 0.796875 -4.898438 0.796875 -7.109375 C 0.796875 -9.328125 1.429688 -11.078125 2.703125 -12.359375 C 4.140625 -13.804688 6.378906 -14.53125 9.421875 -14.53125 C 12.472656 -14.53125 14.71875 -13.804688 16.15625 -12.359375 C 17.425781 -11.078125 18.0625 -9.328125 18.0625 -7.109375 C 18.0625 -4.898438 17.425781 -3.148438 16.15625 -1.859375 C 14.71875 -0.410156 12.472656 0.3125 9.421875 0.3125 Z M 9.421875 -3.515625 C 10.515625 -3.515625 11.265625 -3.953125 11.671875 -4.828125 C 11.941406 -5.410156 12.078125 -6.171875 12.078125 -7.109375 C 12.078125 -8.046875 11.941406 -8.8125 11.671875 -9.40625 C 11.265625 -10.28125 10.515625 -10.71875 9.421875 -10.71875 C 8.328125 -10.71875 7.578125 -10.28125 7.171875 -9.40625 C 6.898438 -8.8125 6.765625 -8.046875 6.765625 -7.109375 C 6.765625 -6.179688 6.898438 -5.421875 7.171875 -4.828125 C 7.578125 -3.953125 8.328125 -3.515625 9.421875 -3.515625 Z M 9.421875 -3.515625 "/></g></g></g><g fill="#ffffff" fill-opacity="1"><g transform="translate(168.523476, 175.60455)"><g><path d="M 17.53125 0 L 0.796875 0 L 0.796875 -3.53125 C 0.796875 -4.363281 1.035156 -5.046875 1.515625 -5.578125 C 2.003906 -6.117188 2.628906 -6.554688 3.390625 -6.890625 C 4.148438 -7.222656 4.96875 -7.488281 5.84375 -7.6875 C 6.726562 -7.882812 7.582031 -8.050781 8.40625 -8.1875 C 9.488281 -8.363281 10.351562 -8.554688 11 -8.765625 C 11.488281 -8.921875 11.734375 -9.140625 11.734375 -9.421875 C 11.734375 -9.515625 11.707031 -9.609375 11.65625 -9.703125 C 11.207031 -10.378906 10.460938 -10.71875 9.421875 -10.71875 C 8.390625 -10.71875 7.640625 -10.378906 7.171875 -9.703125 L 0.828125 -9.703125 C 1.046875 -10.648438 1.460938 -11.484375 2.078125 -12.203125 C 2.691406 -12.929688 3.585938 -13.503906 4.765625 -13.921875 C 5.941406 -14.335938 7.492188 -14.546875 9.421875 -14.546875 C 11.347656 -14.546875 12.898438 -14.335938 14.078125 -13.921875 C 15.253906 -13.503906 16.148438 -12.929688 16.765625 -12.203125 C 17.378906 -11.484375 17.789062 -10.648438 18 -9.703125 C 18.039062 -9.484375 18.0625 -9.273438 18.0625 -9.078125 C 18.0625 -8.117188 17.695312 -7.328125 16.96875 -6.703125 C 16.238281 -6.085938 15.25 -5.617188 14 -5.296875 C 12.75 -4.984375 11.53125 -4.742188 10.34375 -4.578125 C 9.738281 -4.492188 9.191406 -4.40625 8.703125 -4.3125 C 8.222656 -4.21875 7.84375 -4.109375 7.5625 -3.984375 C 7.28125 -3.859375 7.140625 -3.707031 7.140625 -3.53125 L 17.53125 -3.53125 Z M 17.53125 0 "/></g></g></g><g fill="#ffffff" fill-opacity="1"><g transform="translate(187.362355, 175.60455)"><g><path d="M 9.375 0.3125 C 7.414062 0.3125 5.828125 0.128906 4.609375 -0.234375 C 3.398438 -0.609375 2.488281 -1.101562 1.875 -1.71875 C 1.269531 -2.34375 0.910156 -3.050781 0.796875 -3.84375 L 6.796875 -3.84375 C 6.992188 -2.925781 7.851562 -2.46875 9.375 -2.46875 C 10.1875 -2.46875 10.78125 -2.578125 11.15625 -2.796875 C 11.53125 -3.023438 11.769531 -3.296875 11.875 -3.609375 C 11.976562 -3.929688 12.03125 -4.234375 12.03125 -4.515625 C 12.03125 -4.796875 11.976562 -5.097656 11.875 -5.421875 C 11.769531 -5.742188 11.53125 -6.015625 11.15625 -6.234375 C 10.78125 -6.460938 10.1875 -6.578125 9.375 -6.578125 C 8.757812 -6.578125 8.273438 -6.507812 7.921875 -6.375 C 7.566406 -6.238281 7.300781 -6.066406 7.125 -5.859375 C 6.945312 -5.648438 6.835938 -5.425781 6.796875 -5.1875 L 0.796875 -5.1875 C 0.816406 -5.382812 0.859375 -5.570312 0.921875 -5.75 L 2.859375 -14.234375 L 16.75 -14.234375 L 16.75 -10.703125 L 6.65625 -10.703125 L 6.390625 -9.15625 C 7.265625 -9.28125 8.257812 -9.34375 9.375 -9.34375 C 11.519531 -9.34375 13.222656 -9.125 14.484375 -8.6875 C 15.742188 -8.257812 16.644531 -7.679688 17.1875 -6.953125 C 17.726562 -6.222656 18 -5.410156 18 -4.515625 C 18 -3.628906 17.726562 -2.820312 17.1875 -2.09375 C 16.644531 -1.363281 15.742188 -0.78125 14.484375 -0.34375 C 13.222656 0.09375 11.519531 0.3125 9.375 0.3125 Z M 9.375 0.3125 "/></g></g></g></svg>